<?xml version="1.0" standalone="no"?>
<!DOCTYPE svg PUBLIC "-//W3C//DTD SVG 20010904//EN"
 "http://www.w3.org/TR/2001/REC-SVG-20010904/DTD/svg10.dtd">
<svg version="1.0" xmlns="http://www.w3.org/2000/svg"
 width="504.000000pt" height="495.000000pt" viewBox="0 0 504.000000 495.000000"
 preserveAspectRatio="xMidYMid meet">

<g transform="translate(0.000000,495.000000) scale(0.100000,-0.100000)"
fill="#000000" stroke="none">
<path d="M1638 4588 c-55 -7 -111 -28 -122 -46 -3 -5 27 0 67 10 97 24 105 23
189 -15 105 -48 204 -144 245 -234 32 -70 46 -141 33 -163 -6 -9 -12 -9 -31 0
-33 18 -234 7 -335 -19 -44 -11 -124 -41 -178 -67 l-98 -46 -84 41 c-152 74
-230 171 -243 304 -6 65 -8 69 -15 37 -4 -19 -17 -77 -28 -128 -34 -152 -17
-258 57 -347 l34 -42 -53 -22 c-53 -22 -96 -54 -96 -71 0 -5 48 -9 107 -9 59
0 132 -6 161 -12 l53 -12 -53 -49 c-46 -43 -57 -48 -98 -48 -29 0 -67 10 -107
30 -35 16 -63 26 -63 21 0 -10 77 -77 112 -99 16 -9 28 -19 28 -23 0 -4 -12
-32 -26 -63 l-25 -56 -47 0 c-87 -1 -178 -62 -202 -136 -7 -21 -10 -58 -7 -86
5 -40 3 -50 -11 -55 -38 -14 -103 -66 -117 -93 -20 -39 -19 -88 4 -133 l19
-38 -21 -9 c-12 -4 -37 -24 -56 -43 -42 -45 -47 -100 -13 -146 16 -23 20 -36
13 -53 -11 -29 2 -63 29 -80 14 -9 20 -23 20 -51 0 -34 7 -45 58 -93 31 -30
78 -64 104 -77 26 -12 47 -26 47 -32 1 -5 -36 -30 -81 -55 -145 -80 -291 -215
-347 -321 -46 -85 -64 -193 -45 -268 8 -31 23 -67 34 -81 11 -14 25 -35 31
-47 11 -21 37 -38 46 -29 3 2 -3 16 -12 29 -11 17 -15 41 -13 74 l3 48 27 -52
c15 -28 44 -64 65 -80 31 -24 46 -28 99 -28 59 0 95 12 66 22 -28 10 -74 58
-94 96 -48 95 18 232 156 327 69 46 210 106 293 124 56 12 111 33 216 84 5 2
-11 -22 -36 -54 -25 -33 -51 -77 -58 -99 -7 -22 -21 -49 -31 -60 -9 -11 -24
-36 -32 -56 -13 -31 -13 -44 0 -107 8 -39 25 -95 39 -126 l24 -54 -33 -44
c-62 -81 -119 -203 -118 -249 1 -22 4 -45 8 -50 10 -17 48 -9 75 17 16 15 38
27 51 28 16 1 26 10 33 32 6 17 27 51 47 75 l37 44 20 -25 c12 -14 20 -34 19
-45 -3 -42 3 -56 27 -65 16 -6 23 -15 19 -24 -5 -14 70 -96 89 -96 4 0 7 -54
7 -120 0 -106 2 -120 18 -129 32 -17 121 18 230 90 l43 29 83 -24 c46 -14 101
-28 122 -32 21 -4 52 -15 68 -25 16 -10 59 -25 95 -35 36 -10 80 -29 96 -43
17 -14 75 -54 130 -89 55 -35 115 -74 133 -87 18 -13 40 -21 47 -18 21 7 30
71 16 108 -15 44 -15 45 19 45 46 0 46 23 2 83 -43 57 -87 84 -216 129 -36 13
-66 26 -66 29 0 3 14 26 30 50 17 24 42 81 56 126 23 73 26 95 22 190 -5 124
-27 189 -84 244 -41 40 -43 51 -6 39 65 -22 249 -42 321 -36 146 12 499 78
576 107 84 32 232 51 303 40 66 -10 206 -77 238 -112 18 -20 18 -21 1 -34 -16
-12 -16 -13 4 -18 20 -5 21 -10 15 -61 -14 -126 -100 -240 -221 -297 -176 -83
-388 -91 -530 -19 l-60 30 65 -61 c114 -108 234 -145 445 -135 175 7 285 37
466 126 98 48 237 176 286 265 10 16 12 12 19 -30 8 -59 -2 -310 -16 -379 -16
-77 -56 -154 -116 -223 -31 -35 -54 -66 -51 -69 8 -8 107 59 167 113 71 63
152 175 188 259 19 43 37 108 46 170 26 175 28 184 41 184 7 0 25 -26 40 -57
23 -48 29 -76 34 -162 l6 -105 27 32 c42 50 78 193 78 311 0 228 -200 589
-367 665 -39 17 -39 18 -56 104 -18 91 -60 190 -104 242 -14 17 -22 34 -18 38
4 4 51 6 106 5 161 -4 225 -50 275 -196 14 -39 28 -100 31 -135 7 -74 19 -88
28 -33 12 70 -21 192 -76 281 -43 70 -161 175 -239 212 -98 47 -153 59 -295
65 -99 4 -149 11 -210 30 -100 31 -265 42 -356 24 -152 -30 -244 -120 -314
-305 -48 -127 -77 -147 -162 -111 -63 26 -64 31 -37 85 13 26 24 52 24 58 0 5
16 39 35 76 19 37 35 74 35 82 0 8 5 12 10 9 6 -3 10 -15 10 -26 0 -30 36 -59
74 -59 70 0 109 94 86 209 -5 29 -10 58 -10 63 0 5 22 -6 49 -26 93 -69 191
-65 191 6 0 42 -35 112 -71 142 l-29 24 29 31 c55 58 73 154 50 260 -9 42 -8
54 5 73 40 56 0 169 -70 202 -26 12 -51 35 -69 64 -50 78 -95 119 -142 127
-57 9 -95 -1 -139 -36 -25 -20 -48 -29 -73 -29 -20 0 -49 -7 -65 -15 -28 -15
-29 -15 -102 54 -137 128 -306 208 -506 241 -67 11 -126 20 -129 20 -4 0 0 19
9 43 22 58 22 192 0 232 -27 50 -91 106 -149 130 -87 38 -245 57 -351 43z
m277 -44 c81 -20 144 -60 183 -118 28 -43 32 -56 32 -117 0 -44 -7 -87 -20
-121 -11 -29 -16 -56 -12 -60 4 -4 61 -16 128 -27 146 -25 203 -44 334 -111
74 -39 122 -72 181 -128 l80 -75 -20 -21 c-52 -55 -87 -197 -71 -289 13 -77
25 -112 71 -203 l41 -83 -72 -116 c-40 -64 -78 -119 -84 -121 -47 -18 -229
119 -307 232 -40 59 -57 124 -40 161 7 15 24 66 38 113 44 145 42 394 -3 430
-17 15 -17 20 2 -81 21 -113 7 -255 -45 -444 -7 -27 -9 -28 -16 -10 -5 11 -17
33 -28 48 l-19 28 32 45 c51 72 27 63 -49 -17 l-69 -74 -32 23 c-17 13 -49 31
-70 41 l-38 17 28 64 c16 36 45 96 64 134 20 38 34 71 32 73 -4 4 -46 -60 -46
-71 0 -3 -11 -23 -25 -44 -31 -47 -98 -211 -127 -311 -16 -55 -22 -104 -22
-177 -1 -114 -5 -114 -56 -1 -40 89 -51 154 -51 302 1 215 49 342 182 477 43
43 75 78 72 78 -3 0 -28 -17 -55 -37 -89 -68 -168 -193 -205 -324 -13 -50 -18
-101 -18 -230 0 -162 -1 -166 -26 -200 -70 -93 -159 -263 -159 -305 0 -36 -19
-7 -39 60 -30 100 -30 226 -1 366 21 98 34 138 49 150 4 3 12 24 19 47 7 23
37 75 66 116 55 77 53 97 -3 27 -17 -21 -55 -52 -85 -70 -48 -27 -61 -30 -104
-24 -32 4 -52 2 -56 -5 -5 -7 3 -11 21 -12 56 -1 -9 -18 -72 -18 -75 -1 -170
21 -243 56 l-57 28 88 7 c72 5 103 13 163 42 91 43 99 66 9 25 -36 -16 -87
-32 -113 -36 -43 -6 -46 -5 -33 11 28 34 129 103 229 155 56 30 100 56 98 58
-3 3 -53 -19 -113 -48 -59 -29 -116 -52 -126 -51 -32 3 -146 83 -193 135 -66
73 -88 126 -88 217 -1 41 3 93 7 114 l9 40 29 -61 c62 -130 218 -227 447 -279
169 -38 332 -28 374 24 11 14 10 15 -7 7 -64 -26 -125 -36 -195 -32 -82 5
-260 44 -260 56 0 13 137 71 219 93 48 12 124 22 209 25 120 5 134 4 153 -13
20 -18 21 -18 36 1 24 32 12 131 -26 210 -37 79 -136 180 -221 226 l-55 29 45
-5 c25 -4 72 -13 105 -21z m-723 -720 c21 -15 38 -28 38 -29 0 -1 -47 -2 -104
-1 -57 0 -102 5 -99 9 8 13 85 45 107 46 11 1 37 -11 58 -25z m1950 -72 c29
-35 74 -119 67 -126 -15 -15 -49 13 -87 71 -33 51 -40 68 -30 74 20 13 24 11
50 -19z m203 -56 c43 -18 65 -61 65 -125 0 -40 -4 -53 -22 -65 -51 -36 -130
-3 -147 61 -17 60 -13 92 14 118 28 29 43 30 90 11z m-141 -108 c36 -33 44
-96 16 -131 -15 -18 -31 -27 -51 -27 -52 0 -89 107 -53 158 20 28 56 28 88 0z
m-136 -83 c23 -66 35 -115 28 -115 -5 0 -66 167 -66 183 0 22 17 -8 38 -68z
m-1872 44 c27 -12 51 -23 53 -25 1 -1 -14 -23 -35 -48 -34 -41 -39 -44 -51
-28 -12 15 -13 12 -8 -23 5 -36 2 -45 -30 -80 l-36 -40 4 85 c3 57 11 101 25
133 12 26 23 47 25 47 3 0 26 -10 53 -21z m452 -4 c-12 -27 -23 -31 -34 -13
-4 6 1 17 11 25 28 20 36 16 23 -12z m-44 -34 c14 -15 15 -24 7 -40 -28 -51
-64 -221 -68 -322 -6 -117 4 -166 60 -296 30 -71 56 -99 43 -48 -10 40 11 114
65 221 48 95 101 174 118 174 4 0 16 -19 27 -42 40 -92 115 -197 158 -220 20
-11 16 1 -10 32 -26 31 -45 139 -38 210 l6 69 102 51 101 51 38 -42 c43 -48
49 -39 11 17 -28 41 -25 61 13 75 19 7 26 1 53 -49 30 -56 31 -59 25 -152 -6
-81 -4 -103 13 -150 13 -35 22 -88 24 -146 3 -73 9 -102 30 -144 l27 -53 -72
-78 c-139 -151 -260 -229 -386 -251 -65 -11 -69 -13 -56 -29 28 -30 114 -70
164 -76 66 -8 141 17 203 67 44 35 51 37 85 29 46 -10 83 -50 83 -90 0 -78
-81 -176 -166 -199 -54 -15 -154 -8 -212 15 -36 15 -40 20 -32 36 14 26 2 67
-25 85 -13 9 -28 28 -33 43 -21 61 -105 43 -127 -27 -10 -36 -14 -37 -118 -21
-196 29 -329 80 -445 168 -233 179 -338 370 -303 554 7 42 29 89 79 171 38 63
80 139 92 169 14 34 33 60 50 71 40 23 111 21 144 -5 28 -22 35 -42 12 -33 -8
3 -31 1 -53 -5 -55 -15 -143 -109 -143 -155 0 -17 59 -56 87 -56 10 0 25 -6
31 -12 7 -7 20 -13 30 -13 11 0 17 -8 17 -24 0 -16 11 -31 37 -47 l37 -23 19
32 c51 83 66 220 33 292 -40 86 -128 138 -201 118 -22 -5 -40 -7 -40 -4 1 14
29 41 73 69 45 28 52 30 125 25 52 -3 91 0 122 10 60 20 64 20 84 -2z m1690
-137 c7 -59 -5 -103 -30 -111 -18 -6 -29 161 -13 198 l12 31 12 -30 c7 -16 16
-55 19 -88z m-2231 24 c-3 -24 2 -68 10 -100 13 -52 13 -59 -4 -97 -13 -29
-33 -51 -70 -74 -37 -23 -47 -33 -35 -35 21 -4 19 -13 -16 -112 -31 -84 -33
-87 -76 -107 -35 -16 -36 -17 -12 -20 60 -10 67 -75 15 -131 l-34 -37 -1 33
c0 82 -107 98 -121 18 -3 -12 -14 -20 -31 -22 -40 -4 -72 39 -64 86 6 40 68
99 104 100 28 0 28 10 0 45 -14 18 -23 47 -26 79 -4 50 -3 53 37 89 51 46 85
56 111 32 28 -25 35 -13 14 27 -39 75 -36 138 10 189 44 50 99 75 167 78 25 1
26 -1 22 -41z m1020 31 c33 -17 67 -51 61 -61 -9 -14 -145 -80 -152 -73 -3 3
-1 25 5 48 27 99 38 111 86 86z m287 -269 c45 -71 161 -174 235 -211 62 -31
63 -31 54 -62 -12 -43 -12 -44 11 -67 26 -26 63 -25 117 1 83 40 203 170 203
221 0 11 5 15 14 12 9 -4 17 -28 21 -67 10 -102 -44 -266 -129 -392 -24 -36
-25 -38 -8 -60 26 -36 87 -66 147 -72 63 -7 63 -6 40 -110 -25 -110 -30 -119
-73 -120 -21 -1 -60 10 -90 24 -35 17 -65 24 -88 21 l-34 -4 0 49 c0 44 -4 54
-40 89 -22 22 -40 43 -40 47 0 4 15 12 33 19 33 12 111 71 104 78 -2 3 -30
-11 -62 -31 -33 -19 -62 -35 -67 -35 -4 0 -8 17 -8 39 0 44 -16 99 -37 122
-12 15 -9 17 34 23 46 6 92 30 81 41 -3 3 -18 1 -34 -6 -63 -24 -234 -4 -234
28 0 29 -17 10 -38 -45 -57 -141 -195 -317 -287 -364 -24 -13 -66 -23 -105
-25 -53 -3 -74 0 -115 20 l-50 24 60 13 c109 22 188 73 320 205 75 74 133 142
153 178 18 31 35 57 38 57 3 0 19 -9 35 -21 41 -29 132 -59 176 -58 42 0 37 4
-57 34 -154 48 -289 202 -321 367 -10 50 -8 88 5 88 2 0 18 -23 36 -50z
m-1030 5 c11 -13 10 -21 -1 -42 -17 -31 -35 -39 -54 -23 -20 16 -19 22 6 54
24 30 32 32 49 11z m1625 -133 c-8 -44 -107 -148 -129 -135 -7 4 -32 25 -56
46 l-42 38 43 72 c24 40 51 84 61 99 l19 28 55 -57 c51 -52 55 -59 49 -91z
m379 85 l29 -24 -39 -56 c-21 -31 -44 -56 -49 -57 -6 0 -30 20 -54 44 -43 43
-43 44 -26 70 10 14 27 26 39 26 11 0 28 5 36 10 22 14 32 12 64 -13z m69
-107 c9 -45 0 -60 -39 -60 -41 0 -43 12 -8 63 28 42 39 41 47 -3z m-233 -33
c6 -33 10 -60 8 -62 -2 -2 -30 -13 -62 -24 -69 -24 -76 -20 -76 45 0 23 -3 54
-6 70 l-5 29 64 0 65 0 12 -58z m-737 -120 l39 -46 -27 -36 c-15 -19 -29 -35
-32 -35 -12 0 -43 94 -49 146 -6 67 -14 70 69 -29z m325 43 l43 -39 -23 -14
c-50 -32 -100 -32 -112 -1 -7 19 23 94 38 94 6 -1 30 -18 54 -40z m975 -17
c44 -9 85 -22 92 -30 10 -10 44 -13 127 -12 121 1 183 -8 273 -40 59 -21 144
-71 167 -98 11 -14 10 -15 -10 -9 -37 12 -194 10 -239 -3 -43 -12 -58 -31 -25
-31 48 0 141 -179 156 -300 4 -35 4 -39 -3 -18 -20 61 -84 158 -131 201 -141
127 -326 180 -495 142 -100 -22 -128 -34 -202 -88 -77 -57 -157 -156 -221
-275 -57 -104 -115 -187 -137 -196 -12 -4 -15 3 -15 32 0 21 -5 43 -11 49 -9
9 -9 19 0 40 6 15 27 100 46 187 51 235 127 375 232 430 89 45 235 52 396 19z
m-553 -52 c0 -38 -35 -81 -65 -81 -26 0 -60 40 -53 62 4 10 84 45 111 47 4 1
7 -12 7 -28z m-2380 -82 c7 -11 9 -32 6 -45 -5 -18 -2 -26 11 -31 66 -23 72
-103 8 -103 -15 0 -24 -11 -35 -41 -19 -53 -51 -68 -81 -38 -17 17 -20 29 -15
60 4 27 3 39 -6 39 -20 0 -48 32 -48 55 0 28 24 49 58 50 21 0 28 6 30 25 7
51 51 69 72 29z m150 -47 c7 -26 6 -62 -2 -120 l-11 -84 -36 7 c-20 4 -44 11
-55 17 -18 10 -17 12 13 35 33 26 39 54 20 97 -10 22 -8 29 17 59 16 19 32 32
36 30 4 -2 12 -20 18 -41z m1614 -20 c83 -25 100 -50 105 -157 2 -63 -1 -92
-13 -116 -21 -43 -10 -51 19 -14 24 28 24 29 44 11 29 -26 41 -77 30 -123 -12
-53 -11 -55 10 -43 11 5 39 10 63 10 38 -1 41 -2 25 -14 -30 -23 -40 -69 -23
-109 13 -33 13 -38 -5 -61 -10 -13 -19 -30 -19 -36 0 -21 -79 -5 -107 22 -22
21 -53 68 -53 83 0 3 10 5 23 5 13 0 32 6 42 14 17 12 11 14 -53 18 -52 3 -79
9 -99 24 -32 24 -53 77 -46 115 4 22 9 24 39 21 41 -5 47 15 7 24 -97 20 -153
61 -153 111 0 13 20 66 45 116 25 51 45 98 45 105 0 15 4 15 74 -6z m1379 -43
c55 -23 60 -28 96 -99 21 -41 42 -86 46 -99 l7 -24 -33 26 c-97 72 -219 106
-387 107 -95 0 -215 -21 -265 -47 -56 -28 -50 -6 12 45 119 99 188 122 351
118 95 -2 125 -7 173 -27z m-2923 -60 c17 -28 30 -53 28 -55 -2 -2 -22 -6 -45
-10 -38 -6 -40 -5 -37 17 10 69 15 99 19 99 2 0 17 -23 35 -51z m3088 -40 c48
-37 123 -144 140 -199 48 -152 6 -276 -141 -421 -36 -35 -89 -77 -119 -93
l-53 -30 54 60 c69 76 135 210 152 306 20 122 -16 296 -80 387 -12 16 -21 32
-21 36 0 8 1 7 68 -46z m-285 -29 c68 -10 170 -47 214 -78 42 -30 83 -124 83
-190 0 -140 -64 -277 -187 -399 -85 -85 -107 -97 -118 -64 -8 26 -68 66 -150
100 l-69 29 38 7 c21 4 70 5 108 3 56 -4 67 -3 52 6 -50 29 -409 2 -529 -41
-75 -26 -329 -72 -607 -108 -48 -6 -253 17 -319 37 -36 10 -37 12 -43 69 -5
43 -12 62 -28 73 -25 18 -41 13 -93 -29 l-41 -33 -45 32 c-45 31 -159 150
-159 167 0 12 57 1 115 -23 64 -27 161 -34 220 -18 60 17 132 81 161 145 29
61 30 100 5 141 -18 29 -73 64 -102 64 -7 0 -3 10 11 25 27 29 40 32 40 9 0
-20 66 -84 86 -84 10 0 14 -13 14 -50 0 -80 32 -127 101 -149 29 -9 38 -18 43
-43 10 -49 73 -105 129 -113 26 -4 47 -11 47 -16 0 -13 56 -39 85 -39 14 0 37
11 50 24 21 21 29 23 61 16 69 -16 112 21 99 86 -5 30 -1 39 30 71 36 37 70
89 139 216 31 56 45 71 86 92 50 25 138 60 175 68 38 9 230 7 298 -3z m-2822
-45 c86 -2 100 -5 130 -27 19 -14 46 -33 62 -43 15 -9 27 -21 27 -25 0 -15
-93 -40 -146 -40 -82 0 -211 44 -281 96 l-31 24 26 28 27 29 45 -20 c34 -15
69 -21 141 -22z m327 -163 c23 -15 42 -29 42 -32 0 -13 -54 -61 -93 -84 -42
-24 -181 -75 -312 -115 -130 -39 -234 -115 -305 -223 -66 -100 -62 -194 9
-262 40 -38 39 -49 -1 -40 -49 10 -96 51 -125 107 -21 43 -24 58 -19 106 l7
56 -21 -23 c-18 -22 -29 -51 -46 -127 l-7 -30 -15 35 c-36 82 -3 229 75 335
55 75 175 178 279 240 43 26 87 56 97 67 16 19 21 19 62 8 27 -8 81 -11 138
-8 76 3 99 8 123 25 26 20 31 20 49 7 11 -8 39 -27 63 -42z m3092 -99 c82 -73
178 -235 236 -398 25 -72 28 -93 28 -210 1 -104 -3 -141 -19 -185 l-19 -55 -7
55 c-7 61 -24 119 -48 165 -21 39 -71 105 -80 105 -4 0 -16 -62 -26 -137 -31
-237 -61 -317 -164 -445 -34 -43 -66 -80 -70 -83 -5 -2 2 21 15 53 31 78 44
165 44 307 0 128 -19 315 -32 315 -4 0 -11 -12 -14 -27 -21 -90 -166 -249
-282 -311 -98 -52 -228 -100 -333 -123 -134 -28 -319 -24 -419 11 -85 30 -100
44 -35 34 124 -20 288 7 410 66 122 59 217 194 231 327 l7 63 105 50 c92 44
116 61 184 131 59 60 88 100 118 163 32 65 59 159 60 204 0 9 68 -38 110 -75z
m-1476 7 c4 -5 24 -6 42 -3 20 3 40 1 49 -7 17 -14 20 -53 5 -81 -7 -13 -7
-19 -1 -19 6 0 18 -11 27 -25 14 -21 15 -31 6 -50 -10 -21 -19 -25 -55 -25
-24 0 -48 5 -54 11 -9 9 -18 4 -38 -20 -28 -32 -53 -38 -86 -21 -27 15 -24 59
7 91 l25 26 -21 41 c-17 33 -19 45 -10 62 19 36 75 46 104 20z m-1329 -36 c55
-2 103 -8 107 -12 4 -4 5 -18 1 -31 -6 -24 -6 -24 -129 -19 -132 5 -174 19
-174 59 0 19 4 20 48 15 26 -4 92 -9 147 -12z m-225 -12 c0 -57 69 -80 248
-83 91 -1 102 -3 96 -18 -3 -9 -13 -39 -20 -67 -8 -28 -26 -78 -41 -110 -19
-42 -27 -76 -28 -117 0 -72 16 -87 90 -87 29 0 54 -3 58 -6 3 -4 -4 -19 -15
-35 -18 -23 -19 -31 -8 -44 20 -24 49 -18 70 18 11 17 21 36 23 41 5 16 76
-14 97 -41 22 -29 26 -82 9 -132 -12 -35 -17 -37 -33 -18 -16 20 -110 45 -196
53 -41 4 -84 12 -95 18 -19 10 -100 30 -173 43 -18 3 -35 9 -38 14 -3 6 19 42
49 82 56 74 92 137 127 228 22 54 20 76 -4 44 -12 -17 -15 -15 -36 23 -28 49
-39 55 -75 36 -37 -19 -38 -19 -30 25 9 52 -4 58 -70 31 -49 -20 -56 -26 -66
-62 -16 -61 -9 -90 28 -113 36 -22 37 -46 7 -92 -19 -30 -30 -29 -42 6 -9 24
-16 29 -57 33 -90 11 -97 59 -19 144 63 68 80 99 47 87 -20 -8 -20 -8 41 70
41 50 56 58 56 29z m420 -22 c0 -5 -2 -10 -4 -10 -3 0 -8 5 -11 10 -3 6 -1 10
4 10 6 0 11 -4 11 -10z m77 -90 c2 -22 2 -22 -6 -5 -8 19 -8 19 -19 -1 -11
-22 -68 -51 -78 -41 -10 9 25 65 43 70 38 10 58 2 60 -23z m148 -124 l30 -28
-37 6 c-48 9 -71 -19 -57 -67 12 -43 13 -41 -26 -56 -19 -7 -55 -27 -79 -45
-42 -33 -44 -33 -114 -27 -39 4 -74 9 -77 12 -15 16 -5 82 24 152 17 43 31 85
31 93 0 12 8 13 34 8 23 -4 46 -1 67 10 18 9 38 16 45 16 7 0 21 11 31 24 l18
23 40 -46 c22 -25 54 -59 70 -75z m-510 -16 c0 -29 -4 -36 -23 -38 -28 -4 -39
21 -23 54 17 38 46 28 46 -16z m-267 -99 c37 -5 46 -11 57 -38 13 -31 12 -34
-22 -75 -19 -24 -39 -44 -43 -46 -8 -3 -30 52 -54 131 -13 45 -13 48 2 41 9
-4 37 -10 60 -13z m240 -33 c20 -17 15 -29 -43 -106 -123 -163 -315 -372 -343
-372 -23 0 -12 63 25 139 37 77 65 119 138 202 22 25 59 72 83 103 43 58 43
58 85 51 23 -4 48 -12 55 -17z m532 -2 c0 -3 -25 -12 -56 -21 -39 -11 -72 -31
-108 -63 l-51 -46 45 47 c27 29 63 55 95 67 49 19 75 24 75 16z m319 -63 c49
-60 66 -123 65 -243 0 -82 -5 -119 -23 -170 -24 -70 -77 -160 -93 -160 -6 0
-3 10 6 23 9 12 33 55 52 96 47 96 61 189 46 288 -14 87 -38 138 -89 189 -23
22 -29 32 -16 25 12 -6 35 -28 52 -48z m-327 2 c6 -14 9 -27 7 -30 -3 -2 -30
-1 -62 2 -47 5 -55 8 -46 19 10 12 55 30 82 33 4 1 13 -10 19 -24z m280 -59
c4 -23 -20 -34 -28 -12 -8 21 4 52 15 40 5 -5 11 -18 13 -28z m36 22 c-6 -18
-28 -21 -28 -4 0 9 7 16 16 16 9 0 14 -5 12 -12z m-295 -28 c25 0 27 -2 16
-21 -6 -12 -8 -36 -5 -53 l6 -31 -25 30 c-14 17 -35 43 -47 59 l-22 29 25 -6
c13 -4 37 -7 52 -7z m327 -52 c31 -105 8 -267 -54 -372 -50 -86 -81 -89 -106
-11 -7 22 -21 57 -32 78 -17 35 -18 42 -5 70 8 18 20 66 26 107 7 41 17 88 23
103 9 24 15 27 39 22 22 -5 33 -1 50 19 31 36 44 33 59 -16z m-192 10 c-2 -18
-10 -23 -41 -26 -32 -2 -38 0 -35 15 2 10 11 18 20 18 9 0 20 4 24 8 16 16 35
7 32 -15z m-767 -108 c-24 -45 -27 -48 -43 -33 -24 22 -23 28 15 73 27 33 34
37 43 25 9 -12 6 -26 -15 -65z m592 -38 c-21 -33 -43 -68 -50 -78 -11 -18 -12
-18 -12 4 -1 12 3 22 8 22 17 0 51 86 51 131 l0 44 21 -32 20 -31 -38 -60z
m-496 82 c3 -8 -3 -27 -14 -42 -11 -15 -31 -53 -46 -84 -14 -32 -31 -58 -37
-58 -33 0 -17 74 32 153 31 48 54 59 65 31z m57 -12 c2 -4 -13 -45 -35 -90
-21 -46 -39 -93 -39 -106 0 -12 -5 -27 -12 -34 -44 -44 -52 40 -12 121 49 99
82 135 98 109z m61 -12 c3 -5 -13 -51 -35 -102 -23 -50 -45 -110 -49 -132 -5
-32 -11 -41 -26 -41 -35 0 -22 83 29 192 42 87 64 110 81 83z m195 -31 c87
-14 96 -22 102 -97 l6 -63 -71 -57 c-40 -31 -80 -66 -90 -79 -37 -46 -81 -35
-168 45 -33 29 -36 36 -29 65 10 42 25 80 58 150 l27 58 50 -6 c28 -3 79 -10
115 -16z m203 -114 c-2 -31 -72 -126 -117 -158 -17 -12 -60 -48 -95 -80 -72
-65 -132 -100 -155 -91 -25 10 -19 22 27 50 23 15 75 58 115 96 40 38 83 74
96 79 12 6 42 39 66 75 45 67 66 77 63 29z m115 -61 c24 -52 41 -98 38 -101
-2 -3 -30 16 -61 41 -31 25 -64 50 -72 55 -13 7 -13 12 2 42 20 39 35 59 44
59 3 0 26 -43 49 -96z m-68 -50 c25 -20 66 -55 92 -80 l46 -44 -19 -37 c-11
-22 -27 -38 -37 -38 -11 0 -18 -9 -20 -27 l-3 -27 -49 23 c-27 13 -94 36 -150
52 -55 16 -100 32 -100 37 0 4 26 26 58 50 32 23 73 61 90 85 18 23 36 42 40
42 4 0 27 -16 52 -36z m-458 -79 c33 -25 64 -45 69 -45 22 0 5 -17 -44 -42
-96 -50 -94 -51 -95 47 0 47 2 85 5 85 3 0 32 -20 65 -45z m671 -71 c3 -4 0
-16 -9 -28 -8 -11 -19 -38 -25 -60 -10 -37 -12 -38 -46 -33 -53 9 -77 57 -28
57 16 0 25 6 25 16 0 31 20 54 49 54 15 0 31 -3 34 -6z m162 -61 c78 -29 97
-41 134 -84 24 -28 41 -53 38 -56 -3 -3 -39 2 -79 10 -40 9 -117 23 -170 33
l-98 18 0 30 c0 17 9 46 20 64 23 38 15 39 155 -15z m-18 -134 c76 -11 84 -14
111 -48 42 -53 43 -57 32 -86 l-10 -26 -52 39 c-29 21 -78 53 -108 71 -31 18
-67 41 -80 53 l-25 20 25 -6 c14 -3 62 -11 107 -17z"/>
<path d="M1420 3392 c0 -5 7 -16 17 -23 9 -8 24 -27 35 -44 13 -21 18 -25 18
-12 0 10 -7 29 -16 43 -18 27 -54 51 -54 36z"/>
<path d="M2045 3168 c57 -29 93 -65 122 -123 15 -27 28 -45 30 -38 13 36 -74
140 -139 167 -53 22 -60 19 -13 -6z"/>
<path d="M1860 2991 c0 -6 12 -11 28 -11 15 0 36 -7 46 -15 29 -22 44 -18 20
5 -23 23 -94 39 -94 21z"/>
<path d="M1773 2924 c-37 -8 -26 -23 11 -17 43 7 136 -34 184 -80 37 -35 43
-56 10 -33 -38 27 -115 20 -175 -14 -52 -30 -103 -85 -103 -111 0 -20 72 -89
93 -89 9 0 17 -7 17 -15 0 -9 11 -20 24 -25 18 -7 23 -14 19 -30 -4 -16 5 -32
33 -61 36 -37 39 -38 61 -24 31 20 41 19 45 -7 3 -19 7 -16 32 20 28 41 44 48
99 43 24 -3 21 8 -8 39 -23 24 -26 36 -29 121 -5 131 -42 210 -119 258 -34 21
-147 35 -194 25z m135 -290 c4 -25 -42 -66 -64 -57 -19 7 -18 42 3 65 22 24
57 20 61 -8z"/>
<path d="M1250 2592 c-1 -52 78 -111 128 -96 l27 8 -30 3 c-54 7 -86 25 -105
62 -11 20 -19 30 -20 23z"/>
<path d="M2212 2259 c-56 -9 -145 -49 -125 -56 6 -2 24 2 40 10 15 8 41 17 57
18 25 4 32 -1 50 -36 14 -27 22 -35 24 -23 2 9 -2 27 -8 39 -15 27 0 39 53 39
20 0 37 5 37 10 0 12 -53 11 -128 -1z"/>
<path d="M757 2654 c-15 -15 -7 -45 11 -42 9 2 17 12 17 22 0 20 -16 31 -28
20z"/>
<path d="M2942 2128 c-7 -7 -12 -17 -12 -24 0 -19 27 -24 41 -8 17 21 -10 51
-29 32z"/>
<path d="M1657 2023 c-4 -3 -7 -15 -7 -25 0 -28 34 -19 38 10 3 21 -16 31 -31
15z"/>
</g>
</svg>
