<?xml version="1.0" standalone="no"?>
<!DOCTYPE svg PUBLIC "-//W3C//DTD SVG 20010904//EN"
 "http://www.w3.org/TR/2001/REC-SVG-20010904/DTD/svg10.dtd">
<svg version="1.0" xmlns="http://www.w3.org/2000/svg"
 width="484.000000pt" height="223.000000pt" viewBox="0 0 484.000000 223.000000"
 preserveAspectRatio="xMidYMid meet">

<g transform="translate(0.000000,223.000000) scale(0.100000,-0.100000)"
fill="#000000" stroke="none">
<path d="M74 2207 c-17 -11 -41 -35 -53 -52 -21 -31 -21 -37 -19 -411 2 -245
7 -379 13 -378 6 1 15 12 22 24 9 19 12 -11 13 -155 0 -98 3 -181 5 -185 4 -7
95 -59 340 -196 88 -49 100 -54 103 -44 2 5 9 7 17 4 7 -3 18 3 24 14 6 11 22
23 37 26 23 6 25 10 19 45 -5 28 -2 41 10 51 14 12 16 28 10 114 -6 100 -6
102 27 166 27 53 33 78 34 135 1 39 4 86 6 106 4 35 3 36 -43 52 -83 30 -127
94 -120 177 5 56 85 85 125 44 9 -8 16 -13 16 -9 0 3 9 1 21 -6 14 -7 19 -17
16 -30 -3 -10 -1 -17 3 -14 11 7 2 -127 -10 -139 -5 -5 0 -16 13 -26 17 -14
26 -16 47 -7 47 20 57 36 65 100 15 122 17 113 -36 158 -27 23 -55 51 -61 63
-10 20 -10 20 8 5 27 -23 85 -52 92 -45 3 3 -1 6 -9 6 -12 0 -11 2 1 11 12 8
10 9 -9 4 -15 -5 -21 -3 -17 3 3 6 -2 13 -11 16 -10 4 -29 16 -43 27 l-25 21
50 -7 c142 -19 185 -21 185 -7 0 7 4 11 9 8 13 -9 71 49 71 71 -1 10 -16 43
-35 73 -51 82 -75 128 -75 143 0 11 15 14 60 15 54 0 63 -3 77 -24 34 -53 115
-71 149 -33 33 36 126 77 108 47 -5 -8 -2 -9 12 -2 10 5 147 11 304 14 232 4
291 8 319 21 26 13 30 17 16 23 -9 3 -429 6 -933 5 l-917 0 -31 -22z m287 -54
c9 -9 14 -40 14 -75 0 -53 -3 -62 -28 -84 -15 -13 -37 -24 -47 -24 -10 0 -23
-8 -28 -17 -9 -15 -13 -13 -38 16 -15 18 -34 39 -41 46 -21 22 -15 77 12 118
25 36 28 37 84 37 42 0 62 -5 72 -17z m-1 -873 c30 -30 24 -94 -17 -177 -18
-38 -33 -74 -33 -80 0 -17 -15 -17 -28 0 -6 7 -39 26 -74 42 -35 17 -72 40
-84 53 -12 12 -29 22 -38 22 -9 0 -16 5 -16 10 0 6 5 10 10 10 6 0 10 11 10
24 0 29 42 66 74 66 12 0 32 -7 44 -16 18 -12 22 -13 22 -1 0 8 11 26 25 41
30 32 76 35 105 6z m130 -141 c0 -5 -7 -9 -15 -9 -15 0 -20 12 -9 23 8 8 24
-1 24 -14z m30 11 c0 -5 -5 -10 -11 -10 -5 0 -7 5 -4 10 3 6 8 10 11 10 2 0 4
-4 4 -10z m-110 -60 c0 -5 -4 -10 -10 -10 -5 0 -10 5 -10 10 0 6 5 10 10 10 6
0 10 -4 10 -10z m130 -10 c0 -5 -4 -10 -10 -10 -5 0 -10 5 -10 10 0 6 5 10 10
10 6 0 10 -4 10 -10z m-20 -45 c0 -8 -4 -15 -9 -15 -13 0 -22 16 -14 24 11 11
23 6 23 -9z m80 -35 c0 -5 -4 -10 -10 -10 -5 0 -10 5 -10 10 0 6 5 10 10 10 6
0 10 -4 10 -10z"/>
<path d="M2900 2205 c0 -18 -5 -25 -20 -25 -20 0 -40 -27 -40 -54 0 -9 21 -35
47 -58 26 -24 55 -51 66 -62 43 -42 54 54 14 125 l-26 47 68 1 c61 1 73 -2
110 -30 47 -34 66 -32 81 6 5 14 11 25 14 25 2 0 2 -46 -1 -102 -3 -72 -13
-133 -33 -203 -35 -120 -59 -327 -40 -349 13 -16 50 -17 50 -2 0 26 53 146 65
146 7 0 16 12 19 26 4 14 28 48 53 76 26 27 61 70 78 96 30 46 69 73 136 92
38 11 35 8 -44 -49 -32 -24 -56 -45 -53 -49 3 -3 18 5 33 19 15 13 21 16 14 6
-8 -9 -12 -20 -9 -23 3 -2 13 7 22 21 19 29 73 65 96 64 8 0 3 -5 -12 -10 -31
-12 -87 -93 -98 -145 -7 -31 -6 -37 11 -41 10 -3 19 -10 19 -15 0 -5 5 -6 10
-3 6 3 10 1 10 -4 0 -25 19 -8 34 30 26 64 30 39 7 -36 -25 -82 -26 -92 -3
-98 10 -3 5 -5 -13 -7 l-30 -2 29 -10 29 -11 -32 -13 c-38 -16 -42 -44 -6 -44
47 0 95 27 110 63 16 39 84 260 92 299 6 32 -3 35 -129 47 -5 1 -8 5 -8 10 0
5 17 8 38 6 20 -1 26 0 12 2 -69 13 -37 37 62 48 l67 6 30 77 c17 45 36 78 45
80 22 5 20 -5 -10 -88 -15 -39 -25 -73 -23 -75 3 -2 33 -18 69 -34 50 -24 67
-28 73 -19 4 7 28 49 54 93 75 130 71 125 104 125 34 0 33 6 4 -92 -10 -32
-15 -67 -12 -79 3 -11 1 -45 -6 -74 -9 -43 -8 -57 3 -70 27 -32 53 -14 95 66
52 99 58 106 108 114 23 4 46 13 50 19 23 30 -8 -68 -53 -169 -27 -62 -50
-128 -50 -146 l0 -33 30 34 c30 35 30 35 -7 -38 -37 -72 -37 -74 -18 -88 17
-13 18 -16 5 -24 -12 -7 -12 -12 -3 -21 17 -17 60 6 78 41 25 45 315 327 315
306 0 -4 -12 -25 -26 -47 -34 -54 -16 -42 32 21 39 52 60 63 26 13 -11 -15
-57 -91 -103 -168 -46 -77 -100 -165 -121 -194 l-38 -55 54 -55 c55 -57 82
-98 72 -109 -3 -3 -6 1 -6 8 0 7 -3 10 -7 7 -3 -4 -12 -2 -20 4 -19 16 -16 -1
5 -25 9 -11 -9 2 -40 30 -31 28 -66 54 -77 57 -27 7 -64 -38 -58 -70 3 -18
-10 -10 -61 38 -69 65 -82 66 -96 9 -4 -17 -1 -15 9 8 l16 33 37 -31 c71 -62
98 -100 69 -100 -19 0 -48 -67 -41 -95 6 -24 5 -24 -53 -22 l-58 2 -3 -35 c-3
-28 2 -39 24 -56 17 -14 25 -28 21 -38 -5 -13 -18 -15 -68 -11 -34 3 -66 8
-72 12 -6 3 -7 1 -3 -5 3 -6 -3 -13 -14 -17 -27 -9 -60 -53 -60 -81 0 -13 -10
-43 -21 -67 -16 -33 -20 -54 -15 -81 4 -20 11 -36 17 -36 10 0 49 -59 49 -74
0 -5 -15 7 -32 28 -23 26 -44 39 -70 43 -34 5 -38 3 -44 -21 -7 -31 -20 -33
-48 -7 -25 23 -150 39 -161 21 -4 -7 -11 -8 -18 -2 -7 5 -32 12 -56 16 -28 4
-57 18 -78 36 -19 17 -45 30 -58 30 -25 0 -50 -31 -37 -46 4 -5 -4 1 -18 13
-26 23 -76 33 -98 19 -14 -8 -16 -38 -3 -51 5 -6 13 -35 18 -67 l10 -56 -55
-17 c-75 -24 -86 -13 -70 73 11 62 11 62 -17 92 -25 26 -33 29 -69 23 -68 -10
-86 -42 -46 -78 22 -20 29 -95 9 -95 -6 0 -9 8 -6 19 4 16 -11 45 -65 123 -15
22 -75 33 -94 17 -9 -7 -13 -20 -11 -30 3 -10 -6 -27 -20 -41 -25 -22 -26 -23
-37 -4 -28 48 -55 67 -94 64 -33 -3 -37 -6 -37 -30 -1 -39 -12 -45 -38 -21
-19 18 -34 21 -98 19 -49 0 -82 -6 -93 -15 -22 -18 -38 -4 -43 41 -2 18 -4 38
-5 44 -1 6 -19 31 -41 55 l-39 44 31 -46 c38 -55 51 -116 27 -125 -22 -8 -10
-24 19 -24 15 0 29 -9 36 -22 7 -13 24 -33 38 -45 l25 -22 -32 -34 c-39 -41
-40 -56 -3 -91 29 -28 29 -28 103 -17 47 8 78 18 87 29 10 12 15 14 18 5 6
-15 80 -17 116 -4 14 6 28 19 32 31 l7 22 22 -21 c41 -39 156 -23 156 21 0 7
10 2 23 -10 13 -12 35 -22 50 -22 17 0 27 -5 27 -15 0 -18 -12 -19 -27 -4 -7
7 -16 4 -29 -13 -11 -13 -37 -37 -59 -53 -22 -17 -56 -45 -75 -64 -19 -18 -52
-42 -72 -52 -21 -11 -38 -22 -38 -25 0 -5 60 26 140 73 167 98 210 121 210
113 0 -14 -38 -50 -52 -50 -6 0 -9 -2 -6 -5 3 -3 17 -1 31 4 15 6 29 6 32 2 3
-5 2 -37 -2 -71 -6 -60 -7 -62 -62 -104 -31 -24 -78 -55 -106 -70 -27 -14 -45
-26 -38 -26 24 0 155 30 173 40 13 7 21 7 25 0 3 -5 2 -10 -3 -10 -5 0 -26
-14 -47 -30 -45 -35 -33 -39 29 -8 43 21 46 21 64 4 16 -13 35 -16 93 -14 l74
3 26 49 c24 43 28 46 34 27 3 -11 18 -35 32 -51 23 -28 30 -30 89 -30 60 0 67
2 94 32 l29 31 26 -31 c26 -31 30 -32 105 -32 63 0 79 3 84 16 13 33 16 5 6
-42 -11 -47 -10 -50 15 -72 l27 -23 31 20 c18 11 37 29 43 40 6 12 13 24 16
27 5 4 48 -78 48 -91 0 -10 -199 -5 -205 5 -7 12 -65 13 -65 2 0 -5 -148 -12
-330 -15 -260 -5 -335 -9 -357 -21 l-28 -14 35 -6 c19 -4 380 -6 802 -4 l767
3 32 30 c59 56 59 57 58 482 -1 213 -4 377 -6 363 -5 -24 -19 -40 -35 -40 -5
0 -8 18 -8 39 0 39 -1 40 -37 43 -29 2 -39 8 -41 23 -2 11 -7 29 -12 40 -25
59 -29 97 -15 148 10 36 -1 74 -25 87 -17 9 -20 6 -28 -22 -9 -38 -29 -45 -57
-24 -19 15 -19 15 11 16 36 0 51 22 28 41 -15 12 -4 16 149 53 25 6 27 10 27
56 0 43 3 50 19 50 11 0 22 -8 24 -17 3 -10 5 150 6 355 1 415 1 418 -65 468
l-37 29 -919 3 -918 2 0 -25z m1710 -32 c0 -11 -90 -141 -108 -155 -12 -10
-11 -4 5 22 11 19 29 51 39 70 10 19 25 43 33 53 14 17 31 23 31 10z m-64
-955 c4 -6 3 -8 -4 -4 -6 3 -19 -5 -30 -19 -14 -17 -23 -22 -27 -14 -4 6 -1
15 6 20 8 5 10 9 4 10 -5 0 -1 4 10 9 28 12 33 12 41 -2z m49 -6 c-3 -3 -11 0
-18 7 -9 10 -8 11 6 5 10 -3 15 -9 12 -12z m-328 -58 c2 -6 -3 -18 -10 -29
-19 -24 -47 -13 -47 19 0 21 4 24 27 22 15 -2 28 -7 30 -12z m261 8 c17 -1 41
-11 53 -23 19 -19 22 -20 46 -4 13 9 27 15 29 12 10 -10 -9 -58 -21 -54 -6 3
-18 1 -26 -4 -12 -8 -12 -10 1 -8 29 3 50 -1 50 -10 0 -5 -11 -8 -25 -6 -24 2
-24 1 -10 -15 8 -9 12 -19 9 -22 -3 -3 3 -5 13 -4 12 1 18 -6 18 -23 0 -13 6
-26 13 -28 6 -3 12 -11 12 -19 0 -9 -4 -13 -10 -9 -5 3 -7 -8 -5 -29 6 -42 -2
-48 -43 -36 -20 5 -34 5 -38 -1 -3 -5 -2 -9 3 -8 24 4 53 -2 53 -12 0 -5 -4
-7 -10 -4 -19 12 -10 -9 15 -35 26 -27 46 -88 25 -75 -5 3 -10 -2 -10 -13 0
-10 -6 -19 -14 -19 -10 0 -13 9 -9 34 3 18 2 33 -3 33 -5 0 -21 11 -35 24 -17
16 -31 21 -39 16 -11 -7 -11 -12 -2 -23 10 -11 9 -17 -1 -26 -8 -6 -17 -7 -21
-3 -5 4 2 -10 14 -30 22 -37 15 -53 -10 -23 -11 14 -14 13 -26 -3 -12 -17 -18
-18 -49 -8 -22 7 -35 17 -35 28 0 27 4 33 18 32 7 -1 11 3 9 10 -3 6 -9 10
-14 9 -6 -1 -9 8 -8 20 2 17 -3 22 -21 22 -13 0 -24 -4 -24 -8 0 -4 -22 -7
-50 -5 -27 2 -50 6 -50 9 0 4 -21 12 -47 19 -27 7 -53 17 -60 22 -7 6 -14 5
-18 -2 -4 -7 -16 -9 -28 -6 -15 4 -17 2 -8 -7 6 -6 11 -19 11 -29 0 -11 11
-30 25 -43 l24 -25 -23 0 c-14 0 -40 16 -64 41 l-41 40 -7 -38 -7 -38 -14 33
c-7 18 -11 38 -8 45 4 7 -1 3 -9 -7 -9 -11 -16 -17 -16 -14 0 4 -3 14 -7 24
-4 12 -3 15 5 10 7 -4 12 -1 12 7 0 8 9 26 20 39 10 14 16 29 12 33 -4 5 -2 5
5 1 6 -3 14 -2 18 4 4 6 10 8 14 6 4 -3 14 10 23 29 8 19 12 34 9 33 -27 -3
-41 8 -16 12 6 1 18 6 27 11 10 5 19 5 22 0 9 -14 88 -5 101 12 8 11 16 13 26
6 12 -7 12 -10 0 -18 -9 -6 -10 -11 -2 -15 6 -4 11 -3 11 2 0 5 13 12 29 15
35 7 62 58 54 101 -4 20 -2 27 6 22 6 -4 11 -2 11 4 0 6 3 9 8 7 4 -3 16 -1
27 3 11 4 31 6 45 5 14 -1 40 -3 58 -3z m-214 -72 c-14 -14 -47 17 -40 36 6
15 9 15 27 -5 12 -13 18 -26 13 -31z m-77 -272 c36 -13 39 -31 5 -36 -27 -4
-62 15 -62 33 0 18 13 19 57 3z m-728 -7 c11 -7 5 -25 -33 -89 -25 -43 -55
-87 -65 -96 -18 -17 -19 -16 -29 31 -6 26 -14 65 -17 86 -4 20 -11 40 -16 43
-20 12 -7 25 24 22 32 -3 32 -3 37 -67 l5 -65 25 54 c14 29 26 58 26 64 1 6 2
14 3 19 1 10 23 9 40 -2z m-320 -15 c9 -11 8 -30 -4 -81 -19 -82 -19 -85 0
-85 8 0 15 -4 15 -10 0 -5 -22 -10 -50 -10 -27 0 -50 5 -50 10 0 6 9 10 20 10
16 0 20 7 20 33 0 17 3 48 6 68 6 35 5 36 -21 31 -22 -4 -26 -2 -23 14 3 16
17 23 69 33 4 0 12 -5 18 -13z m-179 -6 c-3 -3 9 -24 26 -45 l31 -40 -23 -52
c-17 -37 -29 -53 -43 -53 -10 0 -32 -3 -48 -6 -28 -6 -30 -4 -41 46 -12 51
-12 53 18 87 22 24 29 41 25 55 -6 17 -3 19 27 16 18 -2 31 -5 28 -8z m1309
-36 c-15 -18 -35 -18 -43 1 -7 19 24 37 42 23 9 -8 9 -14 1 -24z m450 -10 c19
-24 20 -40 21 -312 0 -191 -3 -299 -11 -320 -20 -58 -40 -62 -316 -62 l-248 0
-32 56 -32 55 32 29 c31 28 32 28 35 7 5 -30 31 -57 55 -57 11 0 35 16 53 36
21 22 34 30 34 20 0 -8 10 -26 23 -39 17 -20 38 -27 102 -35 52 -7 84 -7 91
-1 15 12 64 133 64 156 0 10 -17 34 -37 55 -29 30 -45 38 -73 38 -20 0 -41 5
-48 12 -9 9 -20 9 -47 -1 -47 -17 -63 -5 -34 25 19 20 21 28 11 48 -6 14 -22
32 -36 41 -37 24 -80 2 -84 -43 -2 -20 -9 -32 -18 -32 -18 0 -35 -41 -23 -56
5 -7 6 -21 1 -35 -9 -22 -10 -21 -22 16 -20 63 -38 78 -85 72 -22 -3 -59 -1
-83 6 -34 9 -47 9 -63 -2 -19 -11 -24 -9 -54 26 -19 22 -65 54 -111 78 -44 22
-81 41 -83 43 -3 1 5 12 17 25 11 12 23 34 27 48 6 23 10 26 33 20 15 -4 29
-16 30 -27 2 -10 13 -29 24 -40 25 -28 106 -39 130 -17 14 13 18 12 37 -8 18
-20 23 -21 52 -8 25 10 34 10 37 1 5 -15 37 -16 62 -2 13 7 21 6 30 -5 7 -8
20 -15 29 -15 20 1 51 24 51 39 0 6 12 -2 28 -19 22 -24 36 -30 75 -32 26 -1
53 4 59 10 9 9 17 7 32 -7 23 -21 140 -39 149 -24 3 5 15 32 26 61 l21 52 -31
35 c-27 30 -29 35 -12 35 33 0 54 23 56 62 2 30 5 35 19 27 9 -5 26 -20 37
-35z m-1942 19 c4 -10 17 -30 29 -45 l22 -28 -21 -55 c-20 -51 -25 -55 -54
-55 -17 0 -38 -3 -47 -6 -11 -4 -19 7 -30 47 l-16 52 31 34 c20 23 28 41 24
54 -5 16 -1 19 25 19 20 0 33 -6 37 -17z m1571 -12 c3 -16 -1 -22 -10 -19 -7
3 -15 15 -16 27 -3 16 1 22 10 19 7 -3 15 -15 16 -27z m217 -11 c-15 -16 -14
-19 0 -34 13 -12 13 -16 3 -16 -19 0 -38 53 -26 74 8 14 13 15 24 5 13 -10 12
-14 -1 -29z m-953 -4 c4 -6 8 -23 8 -38 0 -25 -3 -27 -50 -30 -41 -2 -48 -6
-40 -18 8 -12 13 -13 30 -2 11 6 29 12 41 12 21 0 22 -1 4 -20 -13 -14 -31
-20 -59 -20 -35 0 -44 4 -59 29 -16 27 -16 30 3 54 11 14 20 29 19 34 -1 4 -1
12 0 16 2 12 95 -4 103 -17z m-975 -3 c2 -6 -24 -41 -57 -77 -34 -36 -59 -70
-56 -75 4 -6 28 -7 56 -4 32 4 50 2 50 -5 0 -14 -139 -27 -153 -13 -7 7 8 31
53 82 l64 72 -56 -6 c-58 -7 -79 2 -60 26 14 16 154 16 159 0z m1151 -5 c25
-21 12 -30 -31 -24 l-42 7 -15 -43 c-8 -24 -22 -44 -31 -46 -14 -3 -15 4 -8
48 4 28 5 58 2 66 -5 14 2 15 53 9 32 -4 65 -12 72 -17z m129 16 c13 -4 21
-10 18 -14 -2 -4 4 -15 15 -25 25 -23 25 -36 -1 -69 -16 -21 -29 -26 -64 -26
-40 0 -44 3 -54 33 -11 30 -10 34 16 55 15 12 27 29 25 37 -3 16 9 18 45 9z
m194 -24 c43 0 52 -21 33 -69 -9 -23 -25 -46 -35 -52 -22 -11 -24 -2 -9 50 11
40 7 51 -19 44 -11 -3 -23 -20 -30 -43 -10 -33 -36 -58 -48 -46 -2 2 1 23 7
46 6 23 9 49 6 57 -10 25 3 32 37 22 17 -5 44 -9 58 -9z m148 -6 c8 -7 -32
-97 -51 -116 -27 -27 -31 -18 -17 33 6 24 11 56 11 72 -1 24 2 26 26 21 15 -4
29 -8 31 -10z m158 -29 c1 0 4 -12 8 -28 9 -34 -15 -37 -43 -7 -19 20 -20 20
-42 2 -19 -16 -21 -22 -11 -40 13 -24 26 -28 36 -12 3 6 18 10 32 10 25 0 26
0 8 -20 -32 -36 -105 -24 -122 20 -9 25 -8 32 13 51 14 13 23 28 20 35 -8 21
5 23 52 6 26 -9 48 -17 49 -17z m131 -13 c11 2 29 -5 40 -16 l21 -18 -24 -49
c-27 -52 -23 -51 -111 -33 -21 4 -41 46 -25 52 4 1 17 9 27 16 15 11 16 17 6
29 -11 13 -10 17 5 25 12 7 22 7 30 1 6 -6 21 -9 31 -7z m-1084 -60 c-8 -2
-21 -2 -29 0 -14 3 -14 6 1 27 l17 24 13 -24 c11 -20 10 -25 -2 -27z m-811 7
c4 -15 2 -19 -10 -15 -8 3 -19 6 -25 6 -6 0 -6 6 2 15 17 21 27 19 33 -6z
m668 -32 c-1 -5 3 -6 9 -2 5 3 10 2 10 -4 0 -5 10 -11 23 -13 14 -2 -3 -10
-45 -22 -42 -11 -78 -15 -95 -11 l-28 7 24 16 c12 9 37 30 55 48 30 31 31 31
40 10 5 -11 8 -25 7 -29z m174 -7 c-3 -5 -29 -10 -56 -10 -31 0 -48 4 -44 10
3 6 29 10 56 10 31 0 48 -4 44 -10z m250 -50 c3 -6 -1 -7 -9 -4 -18 7 -21 14
-7 14 6 0 13 -4 16 -10z m-437 -27 l72 -6 18 -61 19 -61 -34 -68 c-37 -74 -55
-87 -127 -87 -30 0 -48 6 -61 19 -16 18 -16 28 -5 125 10 83 10 109 1 120 -17
21 -3 39 23 32 11 -4 54 -9 94 -13z m385 10 c-7 -2 -19 -2 -25 0 -7 3 -2 5 12
5 14 0 19 -2 13 -5z m-198 -22 l40 -7 -32 -17 c-40 -21 -69 -22 -77 -1 -14 37
-6 39 69 25z m337 -32 c21 -20 26 -29 15 -25 -10 3 -36 9 -58 12 -44 7 -47 11
-21 30 24 19 28 18 64 -17z m488 16 c17 -21 -12 -55 -41 -48 -24 7 -25 39 -1
52 23 14 27 13 42 -4z m-455 -15 c10 -11 16 -20 13 -20 -3 0 -13 9 -23 20 -10
11 -16 20 -13 20 3 0 13 -9 23 -20z m-181 -21 c-5 -8 -1 -8 13 0 18 9 20 7 15
-17 -3 -15 -10 -35 -17 -45 -12 -17 -13 -16 -20 10 -5 15 -8 31 -7 36 1 4 -1
6 -5 5 -5 0 -15 2 -23 5 -8 3 -28 8 -45 10 -16 2 -2 5 33 6 44 1 61 -2 56 -10z
m-117 -22 c7 -5 24 -6 37 -3 27 7 30 2 41 -71 l7 -43 -72 0 c-53 0 -71 -3 -68
-12 6 -17 47 -23 61 -9 6 6 26 11 45 11 l34 0 -24 -29 c-21 -28 -28 -30 -89
-30 l-65 -1 -21 43 -21 43 29 34 c19 23 27 42 24 56 -2 12 -2 24 1 27 8 8 66
-3 81 -16z m258 1 c51 -10 66 -17 74 -36 15 -32 15 -32 -19 -32 -16 0 -33 7
-37 15 -7 11 -18 14 -41 9 -47 -9 -42 -34 7 -34 33 0 44 -6 65 -32 l25 -33
-26 -27 c-24 -25 -34 -28 -88 -28 -56 0 -63 2 -83 30 -23 30 -28 50 -13 50 20
0 71 -23 71 -32 0 -5 15 -8 33 -6 53 5 41 32 -17 38 -43 4 -51 9 -59 33 -6 20
-5 32 5 44 7 9 12 24 10 35 -4 22 6 22 93 6z m-360 -17 c3 -5 1 -12 -5 -16 -5
-3 -10 1 -10 9 0 18 6 21 15 7z m607 -8 c55 -5 56 -6 72 -47 22 -56 21 -57
-23 -100 -37 -36 -42 -38 -84 -32 -43 7 -44 6 -53 -26 -7 -23 -17 -34 -32 -36
-28 -4 -28 13 -1 130 15 65 18 92 10 102 -15 18 -1 29 29 21 14 -3 50 -9 82
-12z m215 -9 c17 -5 22 -11 18 -23 -4 -9 -18 -47 -32 -84 -24 -64 -64 -110
-80 -93 -4 3 4 42 16 86 13 44 21 87 17 96 -8 21 3 37 21 30 8 -4 26 -9 40
-12z m137 -29 c4 -12 15 -14 43 -9 32 5 42 2 62 -20 l24 -26 -28 -71 -28 -72
-60 7 c-33 3 -68 6 -77 6 -11 0 -22 12 -29 31 -15 44 -15 45 25 70 32 19 40
20 76 10 44 -13 54 -10 44 14 -4 11 -17 15 -44 14 -21 -2 -43 1 -50 5 -18 11
-14 44 6 49 29 8 30 8 36 -8z m-75 -66 c-18 -11 -19 -8 -12 20 5 21 7 21 16 6
6 -12 5 -20 -4 -26z m-419 6 c0 -8 -2 -15 -4 -15 -2 0 -6 7 -10 15 -3 8 -1 15
4 15 6 0 10 -7 10 -15z m185 -180 c40 -62 41 -65 17 -65 -10 0 -26 15 -37 36
-10 19 -29 46 -41 60 l-23 24 25 0 c19 0 32 -13 59 -55z"/>
<path d="M4511 1044 c0 -11 3 -14 6 -6 3 7 2 16 -1 19 -3 4 -6 -2 -5 -13z"/>
<path d="M4577 1023 c-11 -10 -8 -53 4 -53 5 0 7 4 4 10 -3 6 1 7 9 4 19 -7
21 7 4 24 -9 9 -9 12 1 12 6 0 17 -14 23 -31 6 -16 12 -28 14 -26 2 2 -1 18
-7 35 -10 30 -36 42 -52 25z"/>
<path d="M4130 960 c-6 -11 -8 -20 -6 -20 3 0 10 9 16 20 6 11 8 20 6 20 -3 0
-10 -9 -16 -20z"/>
<path d="M4360 960 c-12 -7 -10 -9 7 -7 12 0 19 5 17 9 -6 10 -6 10 -24 -2z"/>
<path d="M4460 951 c-5 -11 -10 -27 -10 -37 0 -14 -2 -15 -17 -3 -15 11 -14
10 1 -9 23 -26 11 -29 -18 -4 -21 17 -21 17 -2 -5 25 -29 29 -29 68 7 31 28
32 31 16 44 -10 7 -15 16 -11 19 3 4 1 7 -5 7 -6 0 -16 -9 -22 -19z"/>
<path d="M4282 940 c0 -14 2 -19 5 -12 2 6 2 18 0 25 -3 6 -5 1 -5 -13z"/>
<path d="M4230 946 c0 -2 7 -7 16 -10 8 -3 12 -2 9 4 -6 10 -25 14 -25 6z"/>
<path d="M4627 918 c-4 -12 -4 -24 -2 -27 3 -2 5 1 5 8 0 7 4 10 8 7 4 -2 8 4
8 15 0 26 -12 24 -19 -3z"/>
<path d="M4381 884 c0 -11 3 -14 6 -6 3 7 2 16 -1 19 -3 4 -6 -2 -5 -13z"/>
<path d="M4455 860 c-8 -13 4 -32 16 -25 5 4 9 -2 9 -11 0 -10 3 -15 6 -11 9
9 -4 57 -16 57 -5 0 -12 -4 -15 -10z"/>
<path d="M4397 849 c7 -7 15 -10 18 -7 3 3 -2 9 -12 12 -14 6 -15 5 -6 -5z"/>
<path d="M4520 851 c0 -5 7 -12 16 -15 22 -9 24 -8 24 9 0 8 -9 15 -20 15 -11
0 -20 -4 -20 -9z"/>
<path d="M4520 817 c-9 -7 -14 -20 -12 -29 3 -14 7 -16 23 -8 19 11 26 35 11
44 -4 2 -14 -1 -22 -7z"/>
<path d="M4498 743 c7 -3 16 -2 19 1 4 3 -2 6 -13 5 -11 0 -14 -3 -6 -6z"/>
<path d="M2963 716 c-27 -34 -20 -96 12 -96 30 0 52 68 33 100 -16 26 -22 25
-45 -4z"/>
<path d="M4000 545 c-11 -13 -10 -14 4 -9 9 3 16 10 16 15 0 13 -6 11 -20 -6z"/>
<path d="M2776 698 c-27 -38 -18 -98 15 -98 25 0 46 68 30 99 -15 27 -26 27
-45 -1z"/>
<path d="M3590 705 c-13 -16 -3 -20 24 -9 9 3 13 10 10 15 -8 13 -20 11 -34
-6z"/>
<path d="M3927 682 c-15 -16 -15 -21 -2 -38 14 -19 14 -19 36 3 19 18 20 24 9
37 -16 20 -23 20 -43 -2z"/>
<path d="M4566 641 c-18 -7 -18 -8 4 -14 27 -7 39 -1 24 12 -5 5 -18 5 -28 2z"/>
<path d="M4542 588 c3 -7 15 -15 27 -16 16 -3 22 1 19 10 -3 7 -15 15 -27 16
-16 3 -22 -1 -19 -10z"/>
<path d="M3315 438 c-15 -66 -31 -168 -27 -173 3 -3 17 -5 32 -5 22 0 31 9 54
58 26 54 27 61 15 100 -10 36 -16 42 -40 42 -21 0 -30 -6 -34 -22z"/>
<path d="M3576 355 c-4 -12 3 -15 29 -15 24 0 35 5 35 15 0 10 -10 15 -29 15
-16 0 -31 -6 -35 -15z"/>
<path d="M4094 352 c-14 -8 -35 -82 -28 -94 9 -15 30 -9 53 16 19 20 22 29 14
52 -10 30 -22 38 -39 26z"/>
<path d="M4450 240 c-7 -4 -10 -15 -7 -24 8 -20 53 -21 60 -2 7 17 -35 37 -53
26z"/>
<path d="M2242 2171 c-10 -6 -7 -12 12 -24 24 -16 26 -16 36 2 5 11 10 22 10
25 0 9 -43 7 -58 -3z"/>
<path d="M2582 2173 c1 -5 21 -32 43 -60 27 -35 47 -52 63 -52 14 -1 44 -22
77 -55 39 -39 51 -47 44 -29 -5 14 -8 40 -6 59 2 18 -4 57 -14 86 l-18 53 -96
3 c-53 1 -95 -1 -93 -5z"/>
<path d="M2411 2143 c-19 -16 -24 -31 -28 -92 -5 -82 5 -134 47 -246 41 -110
149 -290 165 -274 2 2 0 40 -3 84 l-7 80 -43 24 c-72 39 -100 110 -71 175 10
21 9 30 -6 53 -18 27 -18 28 1 12 14 -13 32 -16 72 -12 45 5 52 8 52 27 0 12
5 27 11 33 14 14 -9 48 -68 105 -48 46 -90 57 -122 31z"/>
<path d="M3087 2104 c-11 -11 -8 -44 3 -44 15 0 24 30 13 41 -5 5 -12 6 -16 3z"/>
<path d="M1979 2083 c-13 -17 -13 -17 6 -3 11 8 22 16 24 17 2 2 0 3 -6 3 -6
0 -17 -8 -24 -17z"/>
<path d="M2227 2093 c-50 -6 -96 -52 -126 -129 -19 -47 -25 -83 -28 -184 -4
-114 -3 -132 21 -204 23 -71 60 -146 72 -146 3 0 -2 13 -11 30 -19 36 -19 40
0 40 21 0 19 13 -5 28 -24 14 -26 47 -5 56 23 8 18 32 -11 53 -23 17 -25 24
-22 73 l3 55 23 -70 c13 -38 34 -91 47 -117 13 -27 22 -48 19 -48 -9 0 18 -42
52 -80 l35 -39 -46 -7 c-66 -9 -140 1 -183 27 l-37 22 45 -46 c24 -26 50 -47
57 -47 7 0 36 -22 64 -49 51 -49 51 -49 39 -85 -6 -20 -15 -36 -19 -36 -4 0
-8 -37 -9 -81 -1 -45 -5 -86 -10 -91 -6 -6 -32 2 -68 20 l-58 29 -62 -39 c-36
-23 -83 -43 -111 -48 -26 -4 -40 -8 -30 -9 9 0 17 -5 17 -11 0 -6 9 -6 25 0
35 13 31 4 -6 -16 -19 -9 -28 -11 -24 -4 5 8 3 11 -6 8 -8 -3 -13 -11 -11 -17
1 -7 -2 -10 -7 -7 -5 3 -29 -3 -52 -15 l-44 -20 40 6 c22 3 58 15 80 25 22 10
53 22 68 26 20 4 32 16 39 35 12 34 19 36 42 10 25 -28 13 -70 -34 -124 -61
-68 -210 -113 -225 -67 -8 25 -25 27 -19 2 7 -24 -54 -49 -63 -26 -7 18 16 66
29 58 4 -3 8 0 8 5 0 18 -39 12 -48 -6 -14 -26 -3 -83 15 -83 9 0 33 5 55 12
l39 12 60 -62 c34 -34 65 -62 70 -62 5 0 24 -31 42 -68 42 -86 72 -136 113
-188 31 -38 32 -44 23 -78 -9 -31 -13 -35 -25 -25 -18 15 -18 0 1 -25 16 -21
19 -65 8 -105 -6 -23 -7 -23 -14 -5 -5 12 -8 -3 -8 -43 l-1 -61 -261 -1 c-259
-2 -261 -2 -254 19 6 18 3 20 -18 15 -23 -6 -26 -2 -53 79 l-29 85 -35 -30
c-19 -17 -29 -28 -22 -24 14 7 17 -11 2 -20 -6 -4 -3 -16 7 -31 9 -14 18 -41
20 -60 l4 -34 -45 0 c-42 0 -47 3 -65 37 l-19 38 -18 -38 -18 -37 -225 1
c-153 0 -218 3 -202 10 18 7 22 14 17 32 -3 12 -6 25 -6 30 0 4 -4 7 -10 7 -6
0 -6 -9 0 -26 13 -33 13 -34 -5 -34 -9 0 -15 10 -16 28 -1 23 -2 22 -8 -8 l-6
-35 -111 -3 -110 -3 -17 36 c-9 20 -17 49 -17 65 0 39 53 100 88 100 14 0 23
3 19 6 -3 3 -29 3 -56 -1 -40 -5 -51 -11 -51 -25 0 -11 -4 -21 -9 -25 -10 -5
-22 -39 -41 -112 l-11 -43 -179 0 c-179 0 -179 0 -207 26 -27 25 -28 31 -31
130 -3 68 0 104 7 104 10 0 73 39 99 61 10 8 12 23 7 48 -10 54 -22 64 -72 57
l-43 -6 0 109 0 108 42 14 c49 16 87 48 80 68 -3 10 0 12 13 7 12 -4 16 -2 12
8 -4 10 -1 13 9 9 7 -3 14 0 14 6 0 20 59 4 93 -26 18 -16 48 -35 65 -42 29
-12 34 -12 46 5 9 12 26 18 50 18 20 0 36 1 36 2 0 1 -66 41 -148 89 -81 48
-180 108 -220 131 -40 24 -77 44 -82 44 -6 0 -10 -17 -10 -37 0 -43 -13 -72
-24 -54 -24 37 -26 -14 -24 -411 3 -419 3 -423 25 -454 49 -68 -25 -64 1174
-62 991 3 1084 4 1087 19 4 24 -17 29 -124 30 -93 1 -94 1 -82 22 7 12 12 65
12 119 1 97 7 121 27 101 8 -8 8 -22 -2 -50 -15 -43 -13 -59 8 -88 14 -19 14
-19 9 10 -3 17 0 40 7 53 l13 23 36 -43 c20 -24 45 -54 57 -67 11 -13 21 -33
21 -44 0 -20 0 -20 19 -1 10 10 17 22 14 27 -9 15 10 6 23 -10 7 -10 14 -13
14 -6 0 6 -15 24 -34 40 -19 15 -53 52 -76 80 -23 29 -46 52 -52 50 -6 -1 -11
7 -13 19 -1 19 5 17 69 -21 39 -23 96 -50 126 -60 30 -9 59 -21 65 -26 5 -5
13 -9 19 -9 5 0 -11 14 -35 32 -24 17 -48 37 -54 43 -5 6 -29 26 -53 44 -24
19 -41 35 -39 37 8 8 92 -45 92 -58 0 -8 10 -12 23 -11 13 2 74 -17 135 -42
62 -24 133 -46 158 -49 l44 -6 -45 13 -45 12 65 3 c68 3 111 22 50 22 -38 0
-100 20 -100 32 0 4 24 8 53 8 28 1 79 7 112 16 33 8 111 23 174 34 62 10 116
22 120 26 3 4 -10 4 -29 0 -203 -40 -372 -13 -441 70 -6 8 -28 14 -49 14 -24
0 -43 7 -54 19 -9 10 -27 21 -39 24 -12 2 -30 8 -39 12 -14 6 -13 -1 7 -43 13
-28 33 -53 44 -57 18 -5 61 -54 61 -68 0 -4 -92 14 -139 29 -17 5 -22 4 -17
-4 17 -29 -111 8 -164 47 -23 17 -46 28 -51 26 -4 -3 -11 0 -15 6 -5 8 -2 10
7 4 8 -4 -2 6 -22 23 -34 29 -119 157 -119 178 0 5 5 2 10 -6 7 -11 10 -5 10
23 0 21 -5 37 -11 37 -8 0 -7 5 1 15 11 13 15 58 9 105 -1 8 -1 35 0 60 l2 45
35 -73 c35 -71 54 -84 54 -37 0 14 -9 29 -21 36 -27 14 -61 91 -54 124 3 14 7
36 10 50 4 18 1 25 -9 25 -10 0 -13 6 -9 16 5 14 3 15 -18 4 -24 -13 -24 -13
-5 9 l19 21 56 -31 c31 -17 62 -38 68 -47 15 -19 10 -36 73 213 29 110 53 201
53 201 1 1 25 -12 54 -28 45 -26 51 -32 44 -51 -6 -14 -4 -26 4 -34 7 -6 16
-33 20 -58 7 -47 7 -47 23 -24 l16 23 11 -44 c11 -41 9 -50 -13 -95 -13 -27
-45 -70 -71 -94 l-46 -44 43 33 c24 18 58 56 76 85 37 57 55 102 37 91 -7 -5
-11 2 -11 17 0 13 -11 45 -24 73 -43 89 -42 92 4 104 45 12 64 4 75 -31 4 -11
11 -17 16 -14 15 10 10 57 -7 70 -13 9 -14 16 -6 32 9 17 5 25 -30 59 -22 21
-52 40 -66 42 -49 6 -109 74 -165 185 -24 48 -32 78 -34 132 l-4 70 26 -30
c24 -27 26 -27 21 -7 -14 54 -18 62 -29 62 -9 0 -9 2 0 8 12 8 6 174 -6 170
-3 -1 -23 -3 -44 -5z m48 -371 c10 -23 19 -62 19 -85 1 -36 -2 -42 -21 -43
-15 -1 -31 11 -49 37 -31 45 -67 164 -59 196 5 21 7 20 48 -20 24 -23 51 -61
62 -85z m-85 -349 c0 -5 14 -22 30 -40 17 -18 30 -35 30 -38 0 -10 -54 27 -82
57 l-27 28 25 0 c13 0 24 -3 24 -7z m-177 -801 c-3 -7 -1 -12 5 -10 5 2 11 -1
13 -7 1 -5 13 -18 26 -28 13 -10 23 -24 23 -30 0 -7 19 -29 42 -50 24 -21 33
-34 22 -28 -12 6 -49 39 -83 73 -47 48 -65 75 -76 115 -9 29 -18 60 -21 70 -3
10 8 -7 24 -37 16 -30 27 -60 25 -68z m231 -388 c27 -30 46 -57 44 -60 -3 -2
-26 23 -52 56 -26 33 -46 60 -44 60 2 0 26 -25 52 -56z"/>
<path d="M1996 2044 c-9 -24 -7 -29 6 -16 7 7 23 12 38 13 23 0 23 1 5 9 -30
13 -42 12 -49 -6z"/>
<path d="M2294 2049 c-7 -12 6 -98 16 -104 4 -3 13 2 20 10 7 8 19 15 26 15
18 0 19 54 2 67 -20 15 -57 22 -64 12z"/>
<path d="M1594 2013 c-4 -16 -16 -45 -26 -66 -11 -22 -18 -41 -15 -43 4 -4 43
79 52 114 4 12 4 22 1 22 -3 0 -9 -12 -12 -27z"/>
<path d="M1037 1981 l22 -24 -32 -46 c-17 -25 -24 -40 -14 -33 9 8 25 29 36
47 l19 33 -26 23 -27 23 22 -23z"/>
<path d="M1872 1871 c-35 -47 -58 -80 -51 -73 19 18 32 15 25 -5 -4 -12 0 -10
10 5 9 12 22 22 29 22 9 0 11 8 7 22 -3 13 -1 19 5 15 10 -6 25 28 28 58 0 6
4 16 9 23 4 7 6 15 5 16 -2 1 -33 -36 -67 -83z"/>
<path d="M1366 1898 c-31 -16 -52 -19 -95 -15 -31 2 -65 7 -76 11 l-20 8 20
-13 c11 -6 22 -13 24 -15 2 -2 -4 -15 -13 -29 -9 -14 -12 -25 -6 -25 5 0 10 3
10 8 0 12 59 42 65 32 3 -4 -10 -14 -28 -20 -24 -10 -28 -14 -14 -17 10 -3 34
5 53 16 43 26 66 27 57 4 -10 -24 -83 -92 -121 -110 -38 -18 -37 -29 2 -12 20
9 32 9 51 1 27 -12 32 -41 17 -84 -5 -13 -6 -34 -2 -48 5 -19 8 -12 14 34 9
65 57 212 87 264 10 17 17 32 16 32 -1 -1 -20 -10 -41 -22z m-46 -145 c-1 -20
-16 -31 -30 -22 -13 8 -13 10 0 19 18 12 30 13 30 3z"/>
<path d="M2835 1846 c-1 -47 2 -53 33 -74 48 -32 68 -29 76 12 7 36 -1 69 -14
61 -5 -3 -12 1 -17 9 -5 8 -24 22 -43 30 l-35 14 0 -52z"/>
<path d="M3791 1876 c-13 -33 -9 -43 8 -22 7 8 11 23 8 33 -3 14 -6 12 -16
-11z"/>
<path d="M1545 1874 c3 -13 -2 -30 -14 -46 -11 -13 -22 -38 -26 -54 -5 -26 -4
-27 7 -10 7 10 25 34 41 53 15 20 27 45 27 57 0 17 -2 18 -10 6 -9 -13 -11
-13 -21 0 -8 12 -9 11 -4 -6z"/>
<path d="M3856 1875 c-3 -8 -1 -15 4 -15 13 0 22 18 11 24 -5 3 -11 -1 -15 -9z"/>
<path d="M1101 1859 c-19 -11 -39 -26 -46 -32 -7 -7 -26 -24 -44 -40 -17 -15
-31 -32 -31 -37 0 -19 28 -10 43 13 16 25 67 75 102 101 29 22 15 19 -24 -5z"/>
<path d="M3814 1838 l-19 -23 23 19 c21 18 27 26 19 26 -2 0 -12 -10 -23 -22z"/>
<path d="M940 1824 c-17 -9 -20 -14 -9 -14 9 0 22 7 29 15 15 18 13 18 -20 -1z"/>
<path d="M3890 1820 c0 -5 4 -10 9 -10 6 0 13 5 16 10 3 6 -1 10 -9 10 -9 0
-16 -4 -16 -10z"/>
<path d="M4135 1800 c10 -11 20 -20 23 -20 3 0 -3 9 -13 20 -10 11 -20 20 -23
20 -3 0 3 -9 13 -20z"/>
<path d="M1572 1780 c0 -14 2 -19 5 -12 2 6 2 18 0 25 -3 6 -5 1 -5 -13z"/>
<path d="M868 1773 c7 -3 16 -2 19 1 4 3 -2 6 -13 5 -11 0 -14 -3 -6 -6z"/>
<path d="M3769 1775 c-1 -5 -3 -14 -4 -20 -2 -5 -3 -15 -4 -22 0 -7 -7 -10
-15 -7 -9 4 -21 -17 -40 -66 -14 -39 -26 -74 -26 -77 0 -8 75 5 104 18 23 11
106 141 106 167 0 23 -39 12 -74 -22 -38 -35 -48 -28 -19 14 15 21 15 23 1 12
-13 -10 -17 -10 -21 0 -3 7 -6 9 -8 3z"/>
<path d="M939 1723 c-12 -16 -12 -17 2 -6 9 7 20 9 24 5 5 -4 5 -1 1 6 -9 16
-11 15 -27 -5z"/>
<path d="M1561 1717 c-13 -21 -12 -21 5 -5 10 10 16 20 13 22 -3 3 -11 -5 -18
-17z"/>
<path d="M2654 1725 c-10 -8 -27 -15 -36 -15 -22 0 -23 -18 -2 -108 l16 -70
53 -4 c61 -3 65 2 65 77 0 76 -11 112 -37 124 -31 14 -35 14 -59 -4z"/>
<path d="M2809 1718 c6 -13 13 -41 16 -62 l7 -39 19 29 c10 16 19 32 19 35 0
4 -16 19 -35 33 -34 27 -35 27 -26 4z"/>
<path d="M1120 1690 c-8 -5 -31 -10 -51 -10 -40 0 -49 -14 -49 -77 0 -41 12
-42 27 -4 12 32 48 57 58 41 3 -5 -2 -10 -11 -10 -17 0 -17 -1 -1 -12 16 -12
16 -18 3 -68 -20 -77 -11 -76 11 1 17 58 22 65 53 75 31 10 37 9 57 -10 14
-13 20 -28 17 -42 -3 -12 1 -26 10 -33 10 -9 13 -23 9 -49 -6 -35 -5 -36 12
-22 15 12 17 25 11 80 -8 92 -28 115 -95 114 -51 -2 -52 -1 -35 17 13 15 14
19 3 19 -8 0 -21 -5 -29 -10z"/>
<path d="M1581 1674 c0 -11 3 -14 6 -6 3 7 2 16 -1 19 -3 4 -6 -2 -5 -13z"/>
<path d="M945 1640 c-15 -17 -16 -20 -3 -20 9 0 18 9 21 20 3 11 4 20 3 20 -2
0 -11 -9 -21 -20z"/>
<path d="M4231 1644 c0 -11 3 -14 6 -6 3 7 2 16 -1 19 -3 4 -6 -2 -5 -13z"/>
<path d="M1331 1588 c-1 -40 3 -68 9 -68 11 0 11 60 0 105 -6 23 -8 15 -9 -37z"/>
<path d="M1870 1622 c6 -13 14 -21 18 -18 3 4 -2 14 -12 24 -18 16 -18 16 -6
-6z"/>
<path d="M895 1587 c-10 -18 -22 -34 -27 -37 -13 -10 -22 -70 -9 -70 6 0 11 8
11 18 0 10 11 41 25 67 28 56 28 70 0 22z"/>
<path d="M1461 1540 l1 -55 11 43 c7 31 7 46 -1 54 -9 9 -12 -1 -11 -42z"/>
<path d="M1160 1561 c-15 -28 -13 -51 4 -45 15 6 28 64 15 64 -5 0 -13 -9 -19
-19z"/>
<path d="M4242 1560 c0 -14 2 -19 5 -12 2 6 2 18 0 25 -3 6 -5 1 -5 -13z"/>
<path d="M1001 1554 c0 -11 3 -14 6 -6 3 7 2 16 -1 19 -3 4 -6 -2 -5 -13z"/>
<path d="M2514 1562 c-29 -20 -24 -45 18 -86 l42 -41 9 32 c8 27 6 36 -19 67
-31 38 -33 40 -50 28z"/>
<path d="M815 1518 c-16 -12 -40 -33 -54 -47 -39 -36 5 -9 54 34 44 38 44 48
0 13z"/>
<path d="M939 1503 c-4 -34 -2 -40 8 -30 9 8 10 22 4 42 -8 30 -8 29 -12 -12z"/>
<path d="M3965 1520 c3 -5 8 -10 11 -10 2 0 4 5 4 10 0 6 -5 10 -11 10 -5 0
-7 -4 -4 -10z"/>
<path d="M1190 1494 c0 -8 5 -12 10 -9 6 3 10 10 10 16 0 5 -4 9 -10 9 -5 0
-10 -7 -10 -16z"/>
<path d="M2666 1487 c10 -5 24 -5 36 0 17 7 14 9 -16 9 -27 0 -32 -2 -20 -9z"/>
<path d="M4403 1479 c38 -20 50 -36 20 -25 -12 4 -9 -1 5 -12 13 -9 41 -32 63
-51 21 -18 39 -30 39 -26 0 4 7 2 15 -5 8 -7 15 -8 15 -3 0 27 -154 144 -187
143 -4 -1 9 -10 30 -21z m92 -64 c22 -19 36 -34 30 -34 -5 0 -28 15 -49 34
-22 19 -35 35 -30 35 5 0 27 -16 49 -35z"/>
<path d="M2800 1450 c0 -13 -52 -60 -68 -60 -20 0 -10 -11 59 -65 35 -27 59
-43 54 -35 -5 8 -8 31 -6 52 2 42 -17 118 -31 118 -4 0 -8 -4 -8 -10z"/>
<path d="M999 1370 c-19 -20 -59 -48 -88 -63 -49 -24 -50 -26 -24 -29 21 -2
27 -8 25 -23 -2 -16 -1 -17 7 -5 6 8 11 25 11 38 0 44 17 21 23 -30 4 -42 30
-118 40 -118 1 0 1 28 -1 62 -3 48 2 79 22 133 14 38 24 70 23 70 -1 1 -18
-15 -38 -35z m-22 -132 c-3 -8 -6 -5 -6 6 -1 11 2 17 5 13 3 -3 4 -12 1 -19z"/>
<path d="M1136 1395 c4 -8 13 -15 21 -15 12 0 12 2 -1 15 -8 8 -17 15 -20 15
-3 0 -3 -7 0 -15z"/>
<path d="M3330 1365 c-6 -8 -10 -19 -8 -26 2 -6 9 0 16 15 13 29 10 33 -8 11z"/>
<path d="M1950 1345 c0 -5 5 -17 10 -25 5 -8 10 -10 10 -5 0 6 -5 17 -10 25
-5 8 -10 11 -10 5z"/>
<path d="M2597 1303 c-4 -20 -2 -42 3 -48 5 -6 27 -47 50 -90 23 -44 38 -70
35 -57 -4 13 -1 29 5 37 14 16 34 10 24 -7 -4 -7 -2 -8 5 -4 6 4 9 11 6 16 -9
15 15 22 31 9 12 -10 16 -9 21 9 3 12 10 19 15 15 6 -3 9 -1 7 5 -4 9 -185
152 -193 152 -2 0 -6 -17 -9 -37z"/>
<path d="M1551 1321 c-8 -6 6 -11 42 -15 70 -9 88 -22 91 -70 2 -26 12 -46 30
-62 28 -27 31 -39 16 -78 -13 -36 -4 -32 20 7 l20 32 0 -33 c0 -28 -5 -35 -32
-47 l-33 -14 42 -1 c23 0 48 -3 56 -6 11 -4 14 0 11 13 -2 10 -5 36 -8 58 -7
78 -69 181 -127 210 -31 16 -106 20 -128 6z"/>
<path d="M711 1304 c-1 -11 -12 -31 -26 -44 -14 -13 -25 -28 -25 -34 0 -5 9 0
21 13 12 12 27 20 35 17 16 -6 18 17 4 49 -8 20 -9 20 -9 -1z"/>
<path d="M801 1236 l-24 -31 28 27 c16 15 27 29 24 31 -2 3 -15 -10 -28 -27z"/>
<path d="M2031 1254 c0 -11 3 -14 6 -6 3 7 2 16 -1 19 -3 4 -6 -2 -5 -13z"/>
<path d="M1576 1219 c-14 -17 -26 -38 -26 -47 0 -12 6 -8 19 12 11 16 27 33
35 38 9 5 16 13 16 18 0 19 -18 10 -44 -21z"/>
<path d="M740 1239 c0 -4 7 -22 15 -40 10 -25 14 -29 15 -13 0 17 -29 70 -30
53z"/>
<path d="M3889 1203 l-24 -28 28 24 c15 14 27 26 27 28 0 8 -8 1 -31 -24z"/>
<path d="M3979 1197 c27 -28 32 -39 23 -50 -16 -19 -3 -30 16 -14 13 10 14 8
8 -11 -7 -21 -6 -22 13 -10 19 12 19 13 3 32 -33 38 -57 61 -77 76 -11 8 -5
-2 14 -23z"/>
<path d="M640 1170 c-7 -17 -9 -42 -5 -57 4 -16 10 -53 14 -83 5 -30 9 -42 10
-26 1 25 3 27 18 15 15 -13 15 -12 4 9 -6 12 -9 28 -5 34 4 7 3 8 -4 4 -16
-10 -26 36 -19 90 2 24 3 44 2 44 -1 0 -8 -13 -15 -30z"/>
<path d="M867 1173 c-12 -15 -13 -20 -2 -30 10 -9 14 -6 17 18 5 34 6 34 -15
12z"/>
<path d="M2026 1162 l-19 -27 24 22 c12 12 21 24 18 27 -2 2 -13 -8 -23 -22z"/>
<path d="M1620 1167 c0 -16 42 -57 58 -57 7 0 12 7 12 15 0 8 -6 15 -14 15 -7
0 -16 9 -19 20 -6 22 -37 28 -37 7z"/>
<path d="M3494 1154 c-18 -14 -18 -15 4 -4 12 6 22 13 22 15 0 8 -5 6 -26 -11z"/>
<path d="M2751 1124 c0 -11 3 -14 6 -6 3 7 2 16 -1 19 -3 4 -6 -2 -5 -13z"/>
<path d="M3419 1123 c-13 -15 -12 -15 9 -4 23 12 28 21 13 21 -5 0 -15 -7 -22
-17z"/>
<path d="M2081 1104 c-12 -27 -11 -28 4 -12 10 9 16 21 13 28 -2 7 -10 -1 -17
-16z"/>
<path d="M770 1109 c0 -5 5 -7 10 -4 6 3 10 8 10 11 0 2 -4 4 -10 4 -5 0 -10
-5 -10 -11z"/>
<path d="M866 1089 c-3 -21 -18 -54 -33 -75 -21 -32 -22 -35 -5 -20 24 21 56
98 50 118 -3 7 -8 -3 -12 -23z"/>
<path d="M3933 1064 c-32 -32 -19 -44 47 -42 l45 1 -45 4 -45 4 25 19 c14 11
19 20 12 20 -7 0 -10 5 -7 10 12 19 -6 10 -32 -16z"/>
<path d="M1560 1055 c14 -8 34 -14 45 -14 18 0 17 1 -5 14 -14 8 -34 14 -45
14 -18 0 -17 -1 5 -14z"/>
<path d="M3679 1033 c-13 -17 -13 -17 6 -3 11 8 22 16 24 17 2 2 0 3 -6 3 -6
0 -17 -8 -24 -17z"/>
<path d="M3838 1023 c6 -2 18 -2 25 0 6 3 1 5 -13 5 -14 0 -19 -2 -12 -5z"/>
<path d="M3620 1000 c-9 -6 -10 -10 -3 -10 6 0 15 5 18 10 8 12 4 12 -15 0z"/>
<path d="M1798 983 c6 -2 18 -2 25 0 6 3 1 5 -13 5 -14 0 -19 -2 -12 -5z"/>
<path d="M3625 970 c-78 -11 -171 -38 -215 -60 -45 -23 -64 -26 -54 -7 4 7 3
9 -2 4 -5 -5 -9 -12 -9 -15 1 -4 -9 -12 -22 -19 -26 -13 -66 -6 -56 11 4 7 3
8 -5 1 -5 -5 -13 -30 -17 -54 -7 -43 -7 -44 10 -27 44 44 227 115 335 131 107
15 153 27 139 36 -16 10 -33 10 -104 -1z"/>
<path d="M660 965 c0 -2 14 -14 31 -26 30 -21 31 -21 20 -2 -8 17 -51 40 -51
28z"/>
<path d="M789 953 c-13 -16 -12 -17 4 -4 9 7 17 15 17 17 0 8 -8 3 -21 -13z"/>
<path d="M4758 943 c7 -3 16 -2 19 1 4 3 -2 6 -13 5 -11 0 -14 -3 -6 -6z"/>
<path d="M3380 920 c-8 -5 -10 -10 -5 -10 6 0 17 5 25 10 8 5 11 10 5 10 -5 0
-17 -5 -25 -10z"/>
<path d="M1891 910 c-9 -5 -4 -7 13 -7 29 0 32 2 13 10 -8 3 -20 2 -26 -3z"/>
<path d="M3295 880 c-3 -5 -1 -10 4 -10 6 0 11 5 11 10 0 6 -2 10 -4 10 -3 0
-8 -4 -11 -10z"/>
<path d="M683 863 c-18 -7 -16 -65 3 -89 15 -19 16 -19 9 1 -16 43 -17 66 -5
80 13 16 13 16 -7 8z"/>
<path d="M2174 854 c-2 -8 -6 -21 -9 -29 -5 -17 32 -30 62 -22 12 3 9 5 -9 6
-21 1 -28 6 -28 20 0 11 8 21 18 23 14 3 12 5 -6 10 -16 4 -25 2 -28 -8z"/>
<path d="M766 835 c-9 -25 -8 -26 19 -13 21 9 29 8 47 -8 l22 -19 -15 25 c-19
30 -63 39 -73 15z"/>
<path d="M2238 843 c7 -3 16 -2 19 1 4 3 -2 6 -13 5 -11 0 -14 -3 -6 -6z"/>
<path d="M1181 793 c14 -39 11 -61 -12 -68 -40 -13 -13 -14 31 -1 36 10 40 14
22 18 -12 4 -22 11 -22 17 0 17 15 13 33 -7 14 -15 28 -18 72 -14 48 4 55 2
49 -12 -7 -17 -34 -22 -34 -6 0 6 -7 10 -16 10 -8 0 -13 -4 -9 -9 3 -5 -7 -12
-22 -14 -16 -2 3 -5 40 -6 l68 -1 -5 40 c-5 38 -4 40 22 39 17 -1 20 -3 10 -6
-12 -3 -18 -14 -18 -31 l0 -26 29 28 c16 16 44 32 63 36 28 7 23 8 -30 9 -35
1 -93 5 -130 10 -154 22 -152 22 -141 -6z"/>
<path d="M1528 793 c7 -3 16 -2 19 1 4 3 -2 6 -13 5 -11 0 -14 -3 -6 -6z"/>
<path d="M2380 771 c0 -14 5 -18 20 -14 11 3 20 7 20 9 0 2 -9 8 -20 14 -17 9
-20 8 -20 -9z"/>
<path d="M881 719 c11 -30 25 -58 29 -63 5 -5 0 15 -11 45 -11 30 -25 58 -29
63 -5 5 0 -15 11 -45z"/>
<path d="M680 736 c0 -50 65 -157 94 -156 6 1 -1 11 -16 23 -30 25 -58 83 -58
122 0 14 -4 25 -10 25 -5 0 -10 -6 -10 -14z"/>
<path d="M1578 738 c-41 -7 -58 -15 -58 -26 0 -12 11 -14 65 -9 75 7 86 12 78
32 -6 17 -4 16 -85 3z"/>
<path d="M820 736 c0 -2 8 -10 18 -17 15 -13 16 -12 3 4 -13 16 -21 21 -21 13z"/>
<path d="M2203 718 c-13 -13 -23 -27 -23 -30 0 -3 15 -17 34 -32 l34 -26 -8
33 c-5 17 -10 43 -12 55 l-3 24 -22 -24z"/>
<path d="M2371 724 c0 -11 3 -14 6 -6 3 7 2 16 -1 19 -3 4 -6 -2 -5 -13z"/>
<path d="M1046 665 c-11 -8 -16 -15 -10 -15 5 0 18 7 28 15 11 8 16 15 10 15
-5 0 -18 -7 -28 -15z"/>
<path d="M1306 645 c-32 -19 -64 -35 -70 -36 -10 0 57 -26 114 -44 20 -6 23
-5 13 6 -18 18 -16 64 2 83 17 16 19 26 7 26 -5 0 -34 -16 -66 -35z"/>
<path d="M1571 661 c-28 -8 -41 -31 -17 -31 9 0 16 4 16 8 0 5 10 14 23 20 25
12 15 14 -22 3z"/>
<path d="M990 629 c-22 -18 -22 -19 -3 -10 12 6 25 16 28 21 9 15 3 12 -25
-11z"/>
<path d="M2353 589 c5 -18 2 -20 -18 -15 -13 3 -31 9 -40 12 -16 6 -16 5 -2
-23 19 -37 40 -54 81 -68 l32 -11 -18 35 c-10 19 -18 48 -18 63 0 15 -5 28
-11 28 -7 0 -9 -9 -6 -21z"/>
<path d="M2205 550 c23 -41 100 -132 141 -169 41 -36 48 -39 61 -25 9 8 23 12
31 9 12 -5 12 -1 -3 15 -10 11 -22 20 -28 20 -13 0 -103 67 -161 120 -27 25
-46 38 -41 30z"/>
<path d="M770 476 c-47 -34 -85 -67 -85 -73 0 -13 -13 -27 -26 -29 -5 -1 -13
-2 -19 -3 -5 0 -14 -10 -19 -20 -21 -39 33 -9 99 55 71 68 139 123 154 124 5
0 18 -7 28 -17 22 -20 24 -11 2 11 -25 25 -44 19 -134 -48z"/>
<path d="M994 510 c22 -11 50 -30 63 -42 13 -12 26 -18 30 -15 3 4 3 7 -2 7
-4 0 -2 6 4 14 19 23 2 46 -34 46 -18 0 -48 2 -66 6 l-34 5 39 -21z"/>
<path d="M1420 505 c0 -10 -7 -14 -22 -12 -13 2 -18 2 -11 0 18 -6 4 -33 -17
-33 -17 0 -56 -47 -47 -56 2 -3 12 7 21 21 10 15 23 24 31 22 7 -3 23 2 35 10
19 13 24 13 31 2 13 -21 12 -23 -21 -52 -16 -15 -30 -30 -30 -35 1 -12 51 -44
58 -37 4 4 7 40 6 80 0 67 1 73 17 64 10 -5 39 -8 66 -8 l48 1 -50 9 c-27 5
-61 15 -75 21 -14 7 -28 14 -32 16 -5 2 -8 -4 -8 -13z"/>
<path d="M1170 506 c0 -3 23 -12 51 -21 27 -9 55 -26 62 -36 6 -10 15 -19 19
-19 14 0 8 23 -9 37 -12 10 -9 10 10 -1 15 -9 27 -12 27 -7 0 5 -14 15 -31 23
l-30 13 38 6 c26 4 10 7 -49 8 -49 0 -88 -1 -88 -3z"/>
<path d="M811 417 c-126 -69 -148 -92 -83 -85 22 2 38 0 36 -4 -3 -4 8 -6 23
-3 15 3 51 7 80 8 29 2 62 12 75 21 19 13 19 15 3 7 -12 -5 -50 -12 -85 -15
-73 -7 -70 -4 55 44 44 17 84 35 88 39 8 8 -55 51 -71 51 -4 -1 -58 -29 -121
-63z"/>
<path d="M1160 420 c8 -5 22 -10 30 -10 13 0 13 1 0 10 -8 5 -22 10 -30 10
-13 0 -13 -1 0 -10z"/>
<path d="M2630 420 c0 -5 5 -10 11 -10 5 0 7 5 4 10 -3 6 -8 10 -11 10 -2 0
-4 -4 -4 -10z"/>
<path d="M1045 411 c3 -5 -8 -12 -25 -16 -16 -4 -33 -11 -36 -17 -6 -10 12 -6
64 13 26 10 27 15 6 23 -8 3 -13 2 -9 -3z"/>
<path d="M660 389 c0 -5 5 -7 10 -4 6 3 10 8 10 11 0 2 -4 4 -10 4 -5 0 -10
-5 -10 -11z"/>
<path d="M1210 380 c0 -5 7 -10 16 -10 8 0 12 5 9 10 -3 6 -10 10 -16 10 -5 0
-9 -4 -9 -10z"/>
<path d="M840 310 c-30 -10 -50 -18 -43 -19 6 -1 24 4 39 9 15 6 29 9 31 7 2
-3 -10 -26 -26 -53 -30 -50 -52 -122 -33 -110 5 3 13 22 16 41 8 40 26 47 26
10 0 -14 5 -25 10 -25 6 0 10 20 10 45 0 25 7 61 14 80 8 19 14 35 13 34 -1 0
-27 -8 -57 -19z"/>
<path d="M630 310 c-16 -6 -6 -7 30 -3 30 3 57 7 59 9 8 7 -64 2 -89 -6z"/>
<path d="M703 277 c-29 -5 -53 -14 -53 -19 0 -6 12 -7 28 -4 70 17 102 27 102
31 0 6 -12 5 -77 -8z"/>
<path d="M448 243 c12 -2 32 -2 45 0 12 2 2 4 -23 4 -25 0 -35 -2 -22 -4z"/>
<path d="M2813 193 c9 -2 23 -2 30 0 6 3 -1 5 -18 5 -16 0 -22 -2 -12 -5z"/>
<path d="M2958 193 c6 -2 18 -2 25 0 6 3 1 5 -13 5 -14 0 -19 -2 -12 -5z"/>
<path d="M2857 159 c7 -7 24 -8 54 -1 l44 10 -54 1 c-40 1 -52 -2 -44 -10z"/>
<path d="M2728 153 c7 -3 16 -2 19 1 4 3 -2 6 -13 5 -11 0 -14 -3 -6 -6z"/>
<path d="M3060 145 c-14 -8 -20 -14 -15 -14 6 0 21 6 35 14 14 8 21 14 15 14
-5 0 -21 -6 -35 -14z"/>
<path d="M105 100 c-3 -5 -1 -10 4 -10 6 0 11 5 11 10 0 6 -2 10 -4 10 -3 0
-8 -4 -11 -10z"/>
<path d="M2948 103 c7 -3 16 -2 19 1 4 3 -2 6 -13 5 -11 0 -14 -3 -6 -6z"/>
<path d="M2305 90 c-10 -17 14 -40 40 -38 20 2 22 5 13 21 -5 10 -12 16 -15
13 -4 -3 -12 -1 -19 5 -8 7 -14 7 -19 -1z"/>
<path d="M2698 83 c12 -2 30 -2 40 0 9 3 -1 5 -23 4 -22 0 -30 -2 -17 -4z"/>
<path d="M2823 83 c9 -2 25 -2 35 0 9 3 1 5 -18 5 -19 0 -27 -2 -17 -5z"/>
</g>
</svg>
